<?xml version="1.0" encoding="UTF-8" standalone="no"?>
<svg
   xmlns:dc="http://purl.org/dc/elements/1.1/"
   xmlns:cc="http://creativecommons.org/ns#"
   xmlns:rdf="http://www.w3.org/1999/02/22-rdf-syntax-ns#"
   xmlns:svg="http://www.w3.org/2000/svg"
   xmlns="http://www.w3.org/2000/svg"
   xmlns:xlink="http://www.w3.org/1999/xlink"
   xmlns:sodipodi="http://sodipodi.sourceforge.net/DTD/sodipodi-0.dtd"
   xmlns:inkscape="http://www.inkscape.org/namespaces/inkscape"
   inkscape:export-ydpi="45"
   inkscape:export-xdpi="45"
   inkscape:export-filename="inkscape.png"
   inkscape:output_extension="org.inkscape.output.svg.inkscape"
   sodipodi:docname="inkscape.svg"
   inkscape:version="1.0 (4035a4fb49, 2020-05-01)"
   sodipodi:version="0.32"
   id="svg2"
   height="128"
   width="128"
   version="1.0">
  <title
     id="title7387">Inkscape Logo</title>
  <sodipodi:namedview
     inkscape:document-rotation="0"
     inkscape:window-maximized="0"
     showgrid="false"
     inkscape:current-layer="svg2"
     inkscape:window-y="67"
     inkscape:window-x="146"
     inkscape:cy="64"
     inkscape:cx="-232"
     inkscape:zoom="1"
     id="base"
     pagecolor="#ffffff"
     bordercolor="#666666"
     borderopacity="1.0"
     objecttolerance="10.0"
     gridtolerance="10.0"
     guidetolerance="10.0"
     inkscape:pageopacity="0.0"
     inkscape:pageshadow="2"
     inkscape:window-width="1406"
     inkscape:window-height="577"
     bordercohor="#666666" />
  <defs
     id="defs4">
    <linearGradient
       gradientUnits="userSpaceOnUse"
       id="WhiteTransparent">
      <stop
         id="stop7"
         offset="0"
         style="stop-color:white;stop-opacity:1" />
      <stop
         id="stop9"
         offset="1"
         style="stop-color:white;stop-opacity:0" />
    </linearGradient>
    <linearGradient
       gradientUnits="userSpaceOnUse"
       id="BlackTransparent">
      <stop
         id="stop12"
         offset="0"
         style="stop-color:black;stop-opacity:1" />
      <stop
         id="stop14"
         offset="1"
         style="stop-color:black;stop-opacity:0" />
    </linearGradient>
    <linearGradient
       gradientUnits="userSpaceOnUse"
       y2="64"
       x2="0"
       y1="128"
       x1="0"
       xlink:href="#BlackTransparent"
       id="liquidShade" />
    <linearGradient
       gradientUnits="userSpaceOnUse"
       y2="76"
       x2="0"
       y1="128"
       x1="0"
       xlink:href="#WhiteTransparent"
       id="liquidSpecular" />
    <linearGradient
       gradientUnits="userSpaceOnUse"
       y2="40"
       x2="60"
       y1="20"
       x1="80"
       xlink:href="#WhiteTransparent"
       id="sideSpecular" />
    <linearGradient
       gradientUnits="userSpaceOnUse"
       y2="50"
       x2="90"
       y1="20"
       x1="60"
       xlink:href="#WhiteTransparent"
       id="IcecapTip" />
    <linearGradient
       gradientUnits="userSpaceOnUse"
       y2="60"
       x2="58"
       y1="35"
       x1="33"
       xlink:href="#WhiteTransparent"
       id="shinySpecular" />
    <clipPath
       id="clipoutline1"
       clipPathUnits="userSpaceOnUse">
      <path
         d="M 54.1,12.5 L 12.9,54.7 C -2.7,70.3 23,69 32.3,74.9 C 36.6,77.7 18.5,81.3 22.2,85 C 25.8,88.7 43.9,92.1 47.5,95.7 C 51.1,99.4 40.2,103.3 43.8,107 C 47.3,110.7 55.7,107.2 57.2,115.6 C 58.3,121.8 72.6,118.7 79,113.4 C 83,110 72.1,110 75.7,106.3 C 84.7,97.2 92.7,102.2 96,93.8 C 97.8,89.3 82.4,86.1 86.5,83.2 C 96.3,76.3 132.3,72.8 115.7,56.2 L 73,12.5 C 67.7,7.5 59,7.5 54.1,12.5 z M 44.2,77.2 C 45.1,77.2 75,81.2 63.5,84.3 C 59.1,85.5 38.9,77.2 44.2,77.2 z M 101.4,93.8 C 101.4,95.9 117.7,97.1 116.8,93.3 C 115.5,86.9 103.2,87.4 101.4,93.8 z M 31.9,104.9 C 35.6,108.1 41.2,104.2 43,99.7 C 39.4,95 26.1,100 31.9,104.9 z M 99.4,98.2 C 94.8,102.4 100.2,106.8 104.7,103.9 C 105.9,103.1 104.6,99.2 99.4,98.2 z "
         id="outline1" />
    </clipPath>
    <filter
       y="0"
       x="0"
       filterUnits="userSpaceOnUse"
       id="ShadowBlur">
      <feGaussianBlur
         id="feGaussianBlur24"
         result="blur"
         stdDeviation="3"
         in="SourceAlpha" />
    </filter>
    <filter
       id="filter6017"
       inkscape:collect="always"
       color-interpolation-filters="sRGB">
      <feGaussianBlur
         id="feGaussianBlur6019"
         stdDeviation="0.80546496"
         inkscape:collect="always" />
    </filter>
    <filter
       id="filter6031"
       inkscape:collect="always"
       color-interpolation-filters="sRGB">
      <feGaussianBlur
         id="feGaussianBlur6033"
         stdDeviation="3.4903482"
         inkscape:collect="always" />
    </filter>
    <linearGradient
       y2="40"
       x2="60"
       y1="20"
       x1="82.11859"
       gradientUnits="userSpaceOnUse"
       id="linearGradient9175"
       xlink:href="#linearGradient5785"
       inkscape:collect="always" />
    <linearGradient
       id="linearGradient5785"
       gradientUnits="userSpaceOnUse">
      <stop
         style="stop-color:#c0cdf9;stop-opacity:1"
         offset="0"
         id="stop5787" />
      <stop
         style="stop-color:#07092d;stop-opacity:0.28804347"
         offset="1"
         id="stop5789" />
    </linearGradient>
    <clipPath
       id="clipPath9086"
       clipPathUnits="userSpaceOnUse">
      <use
         transform="translate(1.009546e-6,0)"
         height="300"
         width="400"
         y="0"
         x="0"
         style="fill:#ffffff;fill-opacity:1"
         class="low-specularity"
         xlink:href="#outline1"
         id="use9088" />
    </clipPath>
    <filter
       id="filter8490"
       inkscape:collect="always"
       color-interpolation-filters="sRGB">
      <feGaussianBlur
         id="feGaussianBlur8492"
         stdDeviation="2.4163949"
         inkscape:collect="always" />
    </filter>
    <linearGradient
       gradientTransform="matrix(1.009184,0,0,1.009184,-0.3890738,-0.3831933)"
       id="shinySpecular-4"
       xlink:href="#WhiteTransparent-4"
       x1="33"
       y1="35"
       x2="58"
       y2="60"
       gradientUnits="userSpaceOnUse" />
    <linearGradient
       id="WhiteTransparent-4"
       gradientUnits="userSpaceOnUse">
      <stop
         style="stop-color:white;stop-opacity:1"
         offset="0"
         id="stop7606-4" />
      <stop
         style="stop-color:white;stop-opacity:0"
         offset="1"
         id="stop7608-7" />
    </linearGradient>
    <linearGradient
       id="IcecapTip-6"
       xlink:href="#WhiteTransparent-4"
       x1="60"
       y1="20"
       x2="90"
       y2="50"
       gradientUnits="userSpaceOnUse" />
    <radialGradient
       r="30.59958"
       fy="250.8974"
       fx="116.3104"
       cy="250.8974"
       cx="116.3104"
       gradientTransform="matrix(1.570052,0,0,1.05093,-75.50011,-22.09591)"
       gradientUnits="userSpaceOnUse"
       id="radialGradient9177"
       xlink:href="#linearGradient8568"
       inkscape:collect="always" />
    <linearGradient
       id="linearGradient8568"
       inkscape:collect="always">
      <stop
         id="stop8570"
         offset="0"
         style="stop-color:#ffffff;stop-opacity:1;" />
      <stop
         id="stop8572"
         offset="1"
         style="stop-color:#ffffff;stop-opacity:0;" />
    </linearGradient>
    <radialGradient
       gradientUnits="userSpaceOnUse"
       gradientTransform="matrix(2.003253,0,0,1.340898,-132.8752,-95.16607)"
       r="30.59958"
       fy="251.994"
       fx="132.4443"
       cy="251.994"
       cx="132.4443"
       id="radialGradient8574"
       xlink:href="#linearGradient8568"
       inkscape:collect="always" />
    <filter
       height="1.228441"
       y="-0.1142206"
       width="1.156158"
       x="-0.07807916"
       id="filter8732"
       inkscape:collect="always"
       color-interpolation-filters="sRGB">
      <feGaussianBlur
         id="feGaussianBlur8734"
         stdDeviation="1.9579068"
         inkscape:collect="always" />
    </filter>
    <radialGradient
       gradientUnits="userSpaceOnUse"
       gradientTransform="matrix(1,0,0,0.4233577,0,97.16423)"
       r="34.25"
       fy="168.5"
       fx="210.25"
       cy="168.5"
       cx="210.25"
       id="radialGradient8744"
       xlink:href="#linearGradient8738"
       inkscape:collect="always" />
    <linearGradient
       id="linearGradient8738"
       inkscape:collect="always">
      <stop
         id="stop8740"
         offset="0"
         style="stop-color:#ffffff;stop-opacity:1;" />
      <stop
         id="stop8742"
         offset="1"
         style="stop-color:#ffffff;stop-opacity:0;" />
    </linearGradient>
    <radialGradient
       r="34.25"
       fy="182.0819"
       fx="217.5"
       cy="182.0819"
       cx="217.5"
       gradientTransform="matrix(1,0,0,0.4233577,0,97.16423)"
       gradientUnits="userSpaceOnUse"
       id="radialGradient8768"
       xlink:href="#linearGradient8738"
       inkscape:collect="always" />
    <filter
       height="1.350825"
       y="-0.1754123"
       width="1.148524"
       x="-0.07426214"
       id="filter8764"
       inkscape:collect="always"
       color-interpolation-filters="sRGB">
      <feGaussianBlur
         id="feGaussianBlur8766"
         stdDeviation="2.1195652"
         inkscape:collect="always" />
    </filter>
    <linearGradient
       gradientUnits="userSpaceOnUse"
       y2="201.5"
       x2="231.75"
       y1="195.1875"
       x1="231.625"
       id="linearGradient8912"
       xlink:href="#linearGradient8866"
       inkscape:collect="always" />
    <linearGradient
       id="linearGradient8866"
       inkscape:collect="always">
      <stop
         id="stop8868"
         offset="0"
         style="stop-color:#ffffff;stop-opacity:1;" />
      <stop
         id="stop8870"
         offset="1"
         style="stop-color:#ffffff;stop-opacity:0;" />
    </linearGradient>
    <linearGradient
       gradientUnits="userSpaceOnUse"
       y2="200.0714"
       x2="231.3765"
       y1="195.6213"
       x1="231.3765"
       id="linearGradient8910"
       xlink:href="#linearGradient8866"
       inkscape:collect="always" />
    <filter
       height="1.556464"
       y="-0.278232"
       width="1.170883"
       x="-0.08544133"
       id="filter8906"
       inkscape:collect="always"
       color-interpolation-filters="sRGB">
      <feGaussianBlur
         id="feGaussianBlur8908"
         stdDeviation="0.56515877"
         inkscape:collect="always" />
    </filter>
    <radialGradient
       gradientUnits="userSpaceOnUse"
       gradientTransform="matrix(1,0,0,0.1477455,0,174.5692)"
       r="14.09375"
       fy="204.8323"
       fx="228.2188"
       cy="204.8323"
       cx="228.2188"
       id="radialGradient8922"
       xlink:href="#linearGradient8916"
       inkscape:collect="always" />
    <linearGradient
       id="linearGradient8916"
       inkscape:collect="always">
      <stop
         id="stop8918"
         offset="0"
         style="stop-color:#ffffff;stop-opacity:1;" />
      <stop
         id="stop8920"
         offset="1"
         style="stop-color:#ffffff;stop-opacity:0;" />
    </linearGradient>
    <filter
       height="1.945718"
       y="-0.4728589"
       width="1.139725"
       x="-0.06986277"
       id="filter8980"
       inkscape:collect="always"
       color-interpolation-filters="sRGB">
      <feGaussianBlur
         id="feGaussianBlur8982"
         stdDeviation="0.82052366"
         inkscape:collect="always" />
    </filter>
    <linearGradient
       y2="201.5"
       x2="231.75"
       y1="195.1875"
       x1="231.625"
       gradientUnits="userSpaceOnUse"
       id="linearGradient8990"
       xlink:href="#linearGradient8866"
       inkscape:collect="always" />
    <linearGradient
       y2="200.0714"
       x2="231.3765"
       y1="195.6213"
       x1="231.3765"
       gradientUnits="userSpaceOnUse"
       id="linearGradient8992"
       xlink:href="#linearGradient8866"
       inkscape:collect="always" />
    <radialGradient
       r="14.09375"
       fy="204.8323"
       fx="228.2188"
       cy="204.8323"
       cx="228.2188"
       gradientTransform="matrix(1,0,0,0.1477455,0,174.5692)"
       gradientUnits="userSpaceOnUse"
       id="radialGradient8994"
       xlink:href="#linearGradient8916"
       inkscape:collect="always" />
    <radialGradient
       gradientUnits="userSpaceOnUse"
       gradientTransform="matrix(1,0,0,0.4070844,0,115.7601)"
       r="22.75"
       fy="187.8694"
       fx="89.875"
       cy="187.8694"
       cx="89.875"
       id="radialGradient9004"
       xlink:href="#linearGradient8998"
       inkscape:collect="always" />
    <linearGradient
       id="linearGradient8998"
       inkscape:collect="always">
      <stop
         id="stop9000"
         offset="0"
         style="stop-color:#ffffff;stop-opacity:0.33004926" />
      <stop
         id="stop9002"
         offset="1"
         style="stop-color:#ffffff;stop-opacity:0;" />
    </linearGradient>
    <linearGradient
       y2="201.5"
       x2="231.75"
       y1="195.1875"
       x1="231.625"
       gradientUnits="userSpaceOnUse"
       id="linearGradient9023"
       xlink:href="#linearGradient8866"
       inkscape:collect="always" />
    <linearGradient
       y2="200.0714"
       x2="231.3765"
       y1="195.6213"
       x1="231.3765"
       gradientUnits="userSpaceOnUse"
       id="linearGradient9025"
       xlink:href="#linearGradient8866"
       inkscape:collect="always" />
    <radialGradient
       gradientUnits="userSpaceOnUse"
       gradientTransform="matrix(1.185075,-0.3283582,0.1228557,0.4433973,-45.06831,152.9216)"
       r="10.46875"
       fy="230.8363"
       fx="90.28125"
       cy="230.8363"
       cx="90.28125"
       id="radialGradient9046"
       xlink:href="#linearGradient9040"
       inkscape:collect="always" />
    <linearGradient
       id="linearGradient9040"
       inkscape:collect="always">
      <stop
         id="stop9042"
         offset="0"
         style="stop-color:#ffffff;stop-opacity:1;" />
      <stop
         id="stop9044"
         offset="1"
         style="stop-color:#ffffff;stop-opacity:0;" />
    </linearGradient>
    <filter
       height="1.33114"
       y="-0.1655701"
       width="1.152359"
       x="-0.07617928"
       id="filter9068"
       inkscape:collect="always"
       color-interpolation-filters="sRGB">
      <feGaussianBlur
         id="feGaussianBlur9070"
         stdDeviation="0.66458488"
         inkscape:collect="always" />
    </filter>
    <radialGradient
       r="54.7834"
       fy="21.22575"
       fx="68.39994"
       cy="21.22575"
       cx="68.39994"
       gradientTransform="matrix(1.722153,0,0,1.694977,-49.39526,-14.07806)"
       gradientUnits="userSpaceOnUse"
       id="radialGradient11553"
       xlink:href="#linearGradient9286"
       inkscape:collect="always" />
    <linearGradient
       id="linearGradient9286"
       inkscape:collect="always">
      <stop
         id="stop9288"
         offset="0"
         style="stop-color:#ffffff;stop-opacity:1;" />
      <stop
         id="stop9290"
         offset="1"
         style="stop-color:#ffffff;stop-opacity:0;" />
    </linearGradient>
    <filter
       id="filter9298"
       inkscape:collect="always"
       color-interpolation-filters="sRGB">
      <feGaussianBlur
         id="feGaussianBlur9300"
         stdDeviation="0.32610678"
         inkscape:collect="always" />
    </filter>
    <linearGradient
       gradientUnits="userSpaceOnUse"
       y2="223.5"
       x2="153.5"
       y1="208.1644"
       x1="95.5"
       id="linearGradient5905"
       xlink:href="#linearGradient5899-3"
       inkscape:collect="always" />
    <linearGradient
       id="linearGradient5899-3"
       inkscape:collect="always">
      <stop
         id="stop5901-1"
         offset="0"
         style="stop-color:#ffffff;stop-opacity:1;" />
      <stop
         id="stop5903-7"
         offset="1"
         style="stop-color:#ffffff;stop-opacity:0;" />
    </linearGradient>
    <filter
       height="1.244671"
       y="-0.1223357"
       width="1.165018"
       x="-0.08250898"
       id="filter5983-5"
       inkscape:collect="always"
       color-interpolation-filters="sRGB">
      <feGaussianBlur
         id="feGaussianBlur5985-9"
         stdDeviation="3.6868363"
         inkscape:collect="always" />
    </filter>
    <linearGradient
       gradientTransform="matrix(0.8852575,0,0,0.8852575,5.177215,9.229337)"
       gradientUnits="userSpaceOnUse"
       y2="84.48032"
       x2="53.63158"
       y1="76.24634"
       x1="57.2252"
       id="linearGradient5801"
       xlink:href="#linearGradient5793-6"
       inkscape:collect="always" />
    <linearGradient
       id="linearGradient5793-6"
       inkscape:collect="always">
      <stop
         id="stop5795-2"
         offset="0"
         style="stop-color:#eeeeec;stop-opacity:1;" />
      <stop
         id="stop5797-1"
         offset="1"
         style="stop-color:#eeeeec;stop-opacity:0;" />
    </linearGradient>
    <radialGradient
       gradientUnits="userSpaceOnUse"
       gradientTransform="matrix(1.351523,0,0,1.717571,-63.70565,-153.9557)"
       r="22.4664"
       fy="214.5512"
       fx="181.2273"
       cy="214.5512"
       cx="181.2273"
       id="radialGradient5811"
       xlink:href="#linearGradient5805"
       inkscape:collect="always" />
    <linearGradient
       id="linearGradient5805"
       inkscape:collect="always">
      <stop
         id="stop5807"
         offset="0"
         style="stop-color:#ffffff;stop-opacity:1;" />
      <stop
         id="stop5809"
         offset="1"
         style="stop-color:#ffffff;stop-opacity:0;" />
    </linearGradient>
    <filter
       id="filter5845"
       inkscape:collect="always"
       color-interpolation-filters="sRGB">
      <feGaussianBlur
         id="feGaussianBlur5847"
         stdDeviation="1.2409356"
         inkscape:collect="always" />
    </filter>
    <linearGradient
       y2="187.6597"
       x2="82.75407"
       y1="180.4757"
       x1="73.7121"
       gradientTransform="matrix(0.4927913,0,0,0.4927913,-6.000388,-9.722518)"
       gradientUnits="userSpaceOnUse"
       id="linearGradient5822"
       xlink:href="#WhiteTransparent-4"
       inkscape:collect="always" />
    <linearGradient
       id="linearGradient10981-3"
       inkscape:collect="always">
      <stop
         id="stop10983-2"
         offset="0"
         style="stop-color:#729fcf;stop-opacity:1;" />
      <stop
         id="stop10985-3"
         offset="1"
         style="stop-color:#729fcf;stop-opacity:0;" />
    </linearGradient>
    <filter
       id="filter10997-7"
       inkscape:collect="always"
       color-interpolation-filters="sRGB">
      <feGaussianBlur
         id="feGaussianBlur10999-0"
         stdDeviation="2.7696726"
         inkscape:collect="always" />
    </filter>
    <linearGradient
       inkscape:collect="always"
       xlink:href="#linearGradient10981-3"
       id="linearGradient1030"
       gradientUnits="userSpaceOnUse"
       gradientTransform="translate(-130.1657,-83.35279)"
       x1="180.8129"
       y1="217.5"
       x2="153.7005"
       y2="144.5" />
  </defs>
  <style
     id="style26"
     type="text/css">
	.specularity {opacity:0.5;}
	.low-specularity {opacity:0.25;}
	.full-specularity {opacity:1;}
	.black {fill:#000000;}
	.white {fill:#ffffff;}
	.outline-big {stroke-width:16;stroke:none;opacity:0.1;fill:none;}
	.outline-small {stroke-width:8;stroke:none;opacity:0.2;fill:none;}
	.stroke-highlight {fill:none;stroke:none;opacity:0.2;}
       	.base-shadow 	{fill:black;opacity:75;}
	</style>
  <!-- Copyright License -->
  <metadata
     id="metadata49">
    <rdf:RDF>
      <cc:Work
         rdf:about="etiquette-icon">
        <dc:format>image/svg+xml</dc:format>
        <dc:type
           rdf:resource="http://purl.org/dc/dcmitype/StillImage" />
        <dc:creator>
          <cc:Agent>
            <dc:title>Andy Fitzsimon</dc:title>
          </cc:Agent>
        </dc:creator>
        <dc:rights>
          <cc:Agent>
            <dc:title>Andrew Michael Fitzsimon</dc:title>
          </cc:Agent>
        </dc:rights>
        <dc:publisher>
          <cc:Agent>
            <dc:title>Fitzsimon IT Consulting Pty Ltd</dc:title>
          </cc:Agent>
        </dc:publisher>
        <dc:identifier>http://andy.fitzsimon.com.au</dc:identifier>
        <dc:date>2006</dc:date>
        <cc:license
           rdf:resource="http://creativecommons.org/licenses/by-sa/3.0/" />
        <dc:title>Inkscape Logo</dc:title>
      </cc:Work>
      <cc:License
         rdf:about="http://creativecommons.org/licenses/by-sa/3.0/">
        <cc:permits
           rdf:resource="http://creativecommons.org/ns#Reproduction" />
        <cc:permits
           rdf:resource="http://creativecommons.org/ns#Distribution" />
        <cc:requires
           rdf:resource="http://creativecommons.org/ns#Notice" />
        <cc:requires
           rdf:resource="http://creativecommons.org/ns#Attribution" />
        <cc:permits
           rdf:resource="http://creativecommons.org/ns#DerivativeWorks" />
        <cc:requires
           rdf:resource="http://creativecommons.org/ns#ShareAlike" />
      </cc:License>
    </rdf:RDF>
  </metadata>
  <g
     id="g9139"
     transform="matrix(0.9965784,0,0,0.9962666,0.2205497,-1.598221)"
     style="display:inline;enable-background:new">
    <g
       id="g6035"
       transform="translate(3.68968e-7,0.4883067)"
       style="opacity:0.7832512">
      <path
         id="path5987"
         d="m 54.1,12.98831 -41.2,42.2 c -15.6,15.6 10.1,14.3 19.4,20.2 4.3,2.8 -13.8,6.4 -10.1,10.1 3.6,3.7 21.7,7.1 25.3,10.7 3.6,3.69999 -7.3,7.59999 -3.7,11.29999 3.5,3.7 11.9,0.2 13.4,8.6 1.1,6.2 15.4,3.1 21.8,-2.2 4,-3.4 -6.9,-3.4 -3.3,-7.1 9,-9.09999 17,-4.1 20.3,-12.49999 1.8,-4.5 -13.6,-7.7 -9.5,-10.6 9.8,-6.9 45.8,-10.4 29.2,-27 l -42.7,-43.7 c -5.3,-5.000003 -14,-5.000003 -18.9,0 z m 47.3,81.3 c 0,2.1 16.3,3.3 15.4,-0.5 -1.3,-6.4 -13.6,-5.9 -15.4,0.5 z M 31.9,105.3883 c 3.7,3.2 9.3,-0.7 11.1,-5.2 -3.6,-4.69999 -16.9,0.3 -11.1,5.2 z m 67.5,-6.69999 c -4.6,4.19999 0.8,8.59999 5.3,5.69999 1.2,-0.8 -0.1,-4.7 -5.3,-5.69999 z"
         style="fill:#000000;fill-opacity:1;filter:url(#filter6017)"
         sodipodi:nodetypes="ccccccccccccccccccccccc"
         inkscape:connector-curvature="0" />
      <path
         sodipodi:nodetypes="ccccccccccccccccccccccc"
         style="opacity:0.5763547;fill:#000000;fill-opacity:1;filter:url(#filter6031)"
         d="m 54.1,13.96492 -41.2,42.2 c -15.6,15.6 10.1,14.3 19.4,20.2 4.3,2.8 -13.8,6.4 -10.1,10.1 3.6,3.7 21.7,7.1 25.3,10.7 3.6,3.69998 -7.3,7.59998 -3.7,11.29998 3.5,3.7 11.9,0.2 13.4,8.6 1.1,6.2 15.4,3.1 21.8,-2.2 4,-3.4 -6.9,-3.4 -3.3,-7.1 9,-9.09998 17,-4.1 20.3,-12.49998 1.8,-4.5 -13.6,-7.7 -9.5,-10.6 9.8,-6.9 45.8,-10.4 29.2,-27 l -42.7,-43.7 c -5.3,-5 -14,-5 -18.9,0 z m 47.3,81.3 c 0,2.1 16.3,3.3 15.4,-0.5 -1.3,-6.4 -13.6,-5.9 -15.4,0.5 z M 31.9,106.3649 c 3.7,3.2 9.3,-0.7 11.1,-5.2 -3.6,-4.69998 -16.9,0.3 -11.1,5.2 z m 67.5,-6.69998 c -4.6,4.19998 0.8,8.59998 5.3,5.69998 1.2,-0.8 -0.1,-4.7 -5.3,-5.69998 z"
         id="path6021"
         inkscape:connector-curvature="0" />
    </g>
    <path
       id="use7631"
       d="M 54.1,12.5 12.9,54.7 C -2.7,70.3 23,69 32.3,74.9 36.6,77.7 18.5,81.3 22.2,85 c 3.6,3.7 21.7,7.1 25.3,10.7 3.6,3.7 -7.3,7.6 -3.7,11.3 3.5,3.7 11.9,0.2 13.4,8.6 1.1,6.2 15.4,3.1 21.8,-2.2 4,-3.4 -6.9,-3.4 -3.3,-7.1 9,-9.1 17,-4.1 20.3,-12.5 1.8,-4.5 -13.6,-7.7 -9.5,-10.6 9.8,-6.9 45.8,-10.4 29.2,-27 L 73,12.5 c -5.3,-5 -14,-5 -18.9,0 z m 47.3,81.3 c 0,2.1 16.3,3.3 15.4,-0.5 -1.3,-6.4 -13.6,-5.9 -15.4,0.5 z m -69.5,11.1 c 3.7,3.2 9.3,-0.7 11.1,-5.2 -3.6,-4.7 -16.9,0.3 -11.1,5.2 z m 67.5,-6.7 c -4.6,4.2 0.8,8.6 5.3,5.7 1.2,-0.8 -0.1,-4.7 -5.3,-5.7 z"
       style="fill:#000000;fill-opacity:1"
       sodipodi:nodetypes="ccccccccccccccccccccccc"
       inkscape:connector-curvature="0" />
    <path
       id="use7639"
       d="M 54.1,12.5 12.9,54.7 C -2.7,70.3 23,69 32.3,74.9 36.6,77.7 18.5,81.3 22.2,85 c 3.6,3.7 21.7,7.1 25.3,10.7 3.6,3.7 -7.3,7.6 -3.7,11.3 3.5,3.7 11.9,0.2 13.4,8.6 1.1,6.2 15.4,3.1 21.8,-2.2 4,-3.4 -6.9,-3.4 -3.3,-7.1 9,-9.1 17,-4.1 20.3,-12.5 1.8,-4.5 -13.6,-7.7 -9.5,-10.6 9.8,-6.9 45.8,-10.4 29.2,-27 L 73,12.5 c -5.3,-5 -14,-5 -18.9,0 z m 47.3,81.3 c 0,2.1 16.3,3.3 15.4,-0.5 -1.3,-6.4 -13.6,-5.9 -15.4,0.5 z m -69.5,11.1 c 3.7,3.2 9.3,-0.7 11.1,-5.2 -3.6,-4.7 -16.9,0.3 -11.1,5.2 z m 67.5,-6.7 c -4.6,4.2 0.8,8.6 5.3,5.7 1.2,-0.8 -0.1,-4.7 -5.3,-5.7 z"
       style="fill:none"
       sodipodi:nodetypes="ccccccccccccccccccccccc"
       inkscape:connector-curvature="0" />
    <use
       clip-path="url(#clipPath9086)"
       transform="matrix(0.9905442,0,0,0.9905442,0.6051535,0.604136)"
       height="300"
       width="400"
       y="0"
       x="0"
       style="opacity:0.6699507;fill:url(#linearGradient9175);filter:url(#filter8490)"
       class="low-specularity"
       xlink:href="#outline1"
       id="use7641"
       inkscape:label="blue_cast" />
    <path
       class="specularity"
       style="opacity:0.5052631;fill:url(#shinySpecular-4);stroke:none"
       d="m 16.56522,57.03937 c -11.201945,11.10103 8.47714,7.97256 23.6149,13.92674 l 31.2847,-55.00052 c -4.74316,-4.84409 -10.79826,-4.44041 -15.13776,0 L 16.56522,57.03937 z"
       id="path7643"
       inkscape:connector-curvature="0" />
    <path
       id="icecap-7"
       class="full-specularity"
       style="fill:url(#IcecapTip-6)"
       d="m 70.5,15.5 16.3,16.6 c 1.5,1.5 1.5,4.6 0.6,5.5 L 79.3,31 77.7,40.7 71,37.1 60.1,44 56.5,29.5 50.7,42.1 36.2,42 c -2.8,0 -2.4,-2.9 0.5,-5.8 5.7,-6.3 16.8,-17 20.3,-20.7 3.6,-3.7 9.9,-3.6 13.5,0 z"
       inkscape:connector-curvature="0" />
    <path
       sodipodi:nodetypes="csszsszszsc"
       transform="matrix(0.5296484,0,0,0.5296484,-11.72226,-13.86416)"
       id="path8566"
       d="m 113,203.5 c 0,0 3.3405,5.1007 3,7.5 -0.6682,4.7087 -10.8094,7.0584 -8.5625,11.25 2.2199,4.1411 10.2214,1.794 16.9375,6.125 6.6875,4.3125 4.8895,13.1015 9.75,15.3125 9.4792,4.312 34.375,-7.4375 33.125,-7.1875 -1.25,0.25 -24.5701,5.0954 -29.8201,0.8454 -5.986,-4.8457 -7.7022,-8.2302 -12.1174,-11.0954 -4.1375,-2.685 -9.9497,-3.7804 -11.3025,-5.9787 -1.3528,-2.1982 2.7092,-5.0346 2.99,-9.2713 0.1686,-2.5444 -4,-7.5 -4,-7.5 z"
       style="opacity:0.2167488;fill:url(#radialGradient9177);fill-opacity:1;fill-rule:evenodd;stroke:none"
       inkscape:connector-curvature="0" />
    <path
       style="opacity:0.2758621;fill:url(#radialGradient8574);fill-opacity:1;fill-rule:evenodd;stroke:none;filter:url(#filter8732)"
       d="m 113,203.5 c 0,0 3.3405,5.1007 3,7.5 -0.6682,4.7087 -10.8094,7.0584 -8.5625,11.25 2.2199,4.1411 10.2214,1.794 16.9375,6.125 6.6875,4.3125 4.8895,13.1015 9.75,15.3125 9.4792,4.312 34.375,-7.4375 33.125,-7.1875 -41.3396,0.1574 -33.6249,-10.4946 -49.5625,-17.5 -2.303,-1.0123 -0.9683,-3.7633 -0.6875,-8 0.1686,-2.5444 -4,-7.5 -4,-7.5 z"
       id="path8718"
       transform="matrix(0.5296484,0,0,0.5296484,-11.72226,-13.86416)"
       sodipodi:nodetypes="csszscssc"
       inkscape:connector-curvature="0" />
    <path
       sodipodi:nodetypes="cccc"
       transform="matrix(0.5296484,0,0,0.5296484,-11.72226,-13.86416)"
       id="path8736"
       d="m 183.25,181.75 c 37.1037,-13.6546 49.0236,-15.5306 61.25,-27.75 -14.1607,11.9537 -44.0985,18.3658 -68.5,29 l 7.25,-1.25 z"
       style="opacity:0.453202;fill:url(#radialGradient8744);fill-opacity:1;fill-rule:evenodd;stroke:none"
       inkscape:connector-curvature="0" />
    <path
       style="opacity:0.5123153;fill:url(#radialGradient8768);fill-opacity:1;fill-rule:evenodd;stroke:none;filter:url(#filter8764)"
       d="m 183.25,181.75 c 61.1037,-21.6546 50.7736,-21.5306 61.25,-27.75 -19.4277,7.4367 -55.7345,8.2298 -68.5,29 l 7.25,-1.25 z"
       id="path8746"
       transform="matrix(0.5296484,0,0,0.5296484,-11.72226,-14.79104)"
       sodipodi:nodetypes="cccc"
       inkscape:connector-curvature="0" />
    <path
       transform="matrix(0.5296484,0,0,0.5296484,-12.38432,-14.79104)"
       d="m 237.875,199.0625 c 0,1.34619 -3.55374,2.4375 -7.9375,2.4375 -4.38376,0 -7.9375,-1.09131 -7.9375,-2.4375 0,-1.34619 3.55374,-2.4375 7.9375,-2.4375 4.38376,0 7.9375,1.09131 7.9375,2.4375 z"
       sodipodi:ry="2.4375"
       sodipodi:rx="7.9375"
       sodipodi:cy="199.0625"
       sodipodi:cx="229.9375"
       id="path8864"
       style="opacity:0.2857143;fill:url(#linearGradient8912);fill-opacity:1;fill-rule:nonzero;stroke:none;stroke-width:1;marker:none;visibility:visible;display:inline;overflow:visible;enable-background:accumulate"
       sodipodi:type="arc" />
    <path
       sodipodi:type="arc"
       style="opacity:0.6206894;fill:url(#linearGradient8910);fill-opacity:1;fill-rule:nonzero;stroke:none;stroke-width:1;marker:none;visibility:visible;display:inline;overflow:visible;filter:url(#filter8906);enable-background:accumulate"
       id="path8874"
       sodipodi:cx="229.9375"
       sodipodi:cy="199.0625"
       sodipodi:rx="7.9375"
       sodipodi:ry="2.4375"
       d="m 237.875,199.0625 c 0,1.34619 -3.55374,2.4375 -7.9375,2.4375 -4.38376,0 -7.9375,-1.09131 -7.9375,-2.4375 0,-1.34619 3.55374,-2.4375 7.9375,-2.4375 4.38376,0 7.9375,1.09131 7.9375,2.4375 z"
       transform="matrix(0.7131486,0,0,1.140781,-54.5779,-134.955)" />
    <path
       sodipodi:nodetypes="ccc"
       transform="matrix(0.5296484,0,0,0.5296484,-11.72226,-14.23868)"
       id="path8914"
       d="m 214.125,203.75 c 3.7695,3.4842 24.7558,5.2722 28.1875,-1 -6.7366,4.7839 -21.7168,3.1026 -28.1875,1 z"
       style="fill:url(#radialGradient8922);fill-opacity:1;fill-rule:evenodd;stroke:none;filter:url(#filter8980)"
       inkscape:connector-curvature="0" />
    <path
       sodipodi:type="arc"
       style="opacity:0.2857143;fill:url(#linearGradient8990);fill-opacity:1;fill-rule:nonzero;stroke:none;stroke-width:1;marker:none;visibility:visible;display:inline;overflow:visible;enable-background:accumulate"
       id="path8984"
       sodipodi:cx="229.9375"
       sodipodi:cy="199.0625"
       sodipodi:rx="6.508443"
       sodipodi:ry="3.082082"
       d="m 236.44594,199.0625 c 0,1.70219 -2.91393,3.08208 -6.50844,3.08208 -3.59451,0 -6.50844,-1.37989 -6.50844,-3.08208 0,-1.70219 2.91393,-3.08208 6.50844,-3.08208 3.59451,0 6.50844,1.37989 6.50844,3.08208 z"
       transform="matrix(0.2042516,-0.1035605,0.2395168,0.4723972,5.754795,30.28656)" />
    <path
       transform="matrix(0.2750159,-0.1394397,0.5158824,1.017471,-65.3535,-69.30064)"
       d="m 236.99305,199.0625 c 0,1.18192 -3.15888,2.14005 -7.05555,2.14005 -3.89667,0 -7.05555,-0.95813 -7.05555,-2.14005 0,-1.18192 3.15888,-2.14005 7.05555,-2.14005 3.89667,0 7.05555,0.95813 7.05555,2.14005 z"
       sodipodi:ry="2.140048"
       sodipodi:rx="7.055552"
       sodipodi:cy="199.0625"
       sodipodi:cx="229.9375"
       id="path8986"
       style="opacity:0.6206894;fill:url(#linearGradient8992);fill-opacity:1;fill-rule:nonzero;stroke:none;stroke-width:1;marker:none;visibility:visible;display:inline;overflow:visible;filter:url(#filter8906);enable-background:accumulate"
       sodipodi:type="arc" />
    <path
       style="fill:url(#radialGradient8994);fill-opacity:1;fill-rule:evenodd;stroke:none;filter:url(#filter8980)"
       d="m 217.0575,201.9403 c 3.7695,3.4842 26.9713,8.9112 25.255,0.8097 -3.3174,5.3233 -18.7842,1.2929 -25.255,-0.8097 z"
       id="path8988"
       transform="matrix(0.2042516,-0.1035605,0.2395168,0.4723972,6.259901,30.64976)"
       sodipodi:nodetypes="ccc"
       inkscape:connector-curvature="0" />
    <path
       sodipodi:nodetypes="cczc"
       transform="matrix(0.5296484,0,0,0.5296484,-11.72226,-13.86416)"
       id="path8996"
       d="m 68.25,186 c 0,-0.6206 38.8462,11.8385 45.5,18.5 -5.4712,-5.3385 -33.15971,-17.6161 -37.375,-17.75 -4.21529,-0.1339 -7.625,-0.5 -8.125,-0.75 z"
       style="fill:url(#radialGradient9004);fill-opacity:1;fill-rule:evenodd;stroke:none"
       inkscape:connector-curvature="0" />
    <g
       transform="matrix(0.8790148,-0.1929959,0.2338341,0.6959295,-20.20953,36.72556)"
       id="g9018">
      <path
         transform="matrix(0.5296484,0,0,0.5296484,-84.4165,-4.727724)"
         d="m 237.875,199.0625 c 0,1.34619 -3.55374,2.4375 -7.9375,2.4375 -4.38376,0 -7.9375,-1.09131 -7.9375,-2.4375 0,-1.34619 3.55374,-2.4375 7.9375,-2.4375 4.38376,0 7.9375,1.09131 7.9375,2.4375 z"
         sodipodi:ry="2.4375"
         sodipodi:rx="7.9375"
         sodipodi:cy="199.0625"
         sodipodi:cx="229.9375"
         id="path9006"
         style="opacity:0.2857143;fill:url(#linearGradient9023);fill-opacity:1;fill-rule:nonzero;stroke:none;stroke-width:1;marker:none;visibility:visible;display:inline;overflow:visible;enable-background:accumulate"
         sodipodi:type="arc" />
      <path
         sodipodi:type="arc"
         style="opacity:0.6206894;fill:url(#linearGradient9025);fill-opacity:1;fill-rule:nonzero;stroke:none;stroke-width:1;marker:none;visibility:visible;display:inline;overflow:visible;filter:url(#filter8906);enable-background:accumulate"
         id="path9008"
         sodipodi:cx="229.9375"
         sodipodi:cy="199.0625"
         sodipodi:rx="7.9375"
         sodipodi:ry="2.4375"
         d="m 237.875,199.0625 c 0,1.34619 -3.55374,2.4375 -7.9375,2.4375 -4.38376,0 -7.9375,-1.09131 -7.9375,-2.4375 0,-1.34619 3.55374,-2.4375 7.9375,-2.4375 4.38376,0 7.9375,1.09131 7.9375,2.4375 z"
         transform="matrix(0.7131486,0,0,1.140781,-126.6101,-124.8917)" />
    </g>
    <path
       sodipodi:nodetypes="czczc"
       transform="matrix(0.5296484,0,0,0.5296484,-11.62295,-14.42691)"
       id="path9038"
       d="m 80.5,220.0625 c 0,0 2.10339,5.6508 7.875,5.9375 5.83887,0.2901 12.5032,-7.007 13.0625,-9.625 -1,2.25 -6.59033,9.0333 -13.8125,8.9375 -4.09986,-0.054 -7.125,-5.25 -7.125,-5.25 z"
       style="opacity:0.6157635;fill:url(#radialGradient9046);fill-opacity:1;fill-rule:evenodd;stroke:none;filter:url(#filter9068)"
       inkscape:connector-curvature="0" />
    <path
       sodipodi:type="inkscape:offset"
       inkscape:radius="-1.456531"
       inkscape:original="M 63.400391 8.75 C 59.950391 8.75 56.549609 10 54.099609 12.5 L 12.900391 54.699219 C -2.6996094 70.299219 23.000781 69.000391 32.300781 74.900391 C 36.600781 77.700391 18.499219 81.3 22.199219 85 C 25.799219 88.7 43.9 92.099219 47.5 95.699219 C 51.1 99.399219 40.200781 103.3 43.800781 107 C 47.300781 110.7 55.699219 107.19961 57.199219 115.59961 C 58.299219 121.79961 72.6 118.70039 79 113.40039 C 83 110.00039 72.099219 110.00078 75.699219 106.30078 C 84.699219 97.200781 92.7 102.20078 96 93.800781 C 97.8 89.300781 82.4 86.099219 86.5 83.199219 C 96.3 76.299219 132.29922 72.799219 115.69922 56.199219 L 73 12.5 C 70.35 10 66.850391 8.75 63.400391 8.75 z M 109.28711 88.75 C 105.82461 88.875 102.30039 90.600781 101.40039 93.800781 C 101.40039 95.900781 117.70078 97.100781 116.80078 93.300781 C 116.15078 90.100781 112.74961 88.625 109.28711 88.75 z M 38.931641 97.839844 C 33.944141 97.492969 27.550391 101.22539 31.900391 104.90039 C 35.600391 108.10039 41.2 104.19922 43 99.699219 C 42.1 98.524219 40.594141 97.955469 38.931641 97.839844 z M 99.400391 98.199219 C 94.800391 102.39922 100.19922 106.80039 104.69922 103.90039 C 105.89922 103.10039 104.60039 99.199219 99.400391 98.199219 z "
       xlink:href="#use7639"
       style="fill:none;stroke:url(#radialGradient11553);stroke-width:1.0035907;stroke-miterlimit:4;stroke-opacity:1;stroke-dasharray:none;filter:url(#filter9298)"
       id="87235"
       inkscape:href="#use7639"
       d="m 63.40625,10.21875 c -3.09818,0 -6.1346,1.12204 -8.28125,3.3125 l -41.1875,42.1875 c -3.76562,3.76562 -4.670241,6.23069 -4.4375,7.625 0.116371,0.69716 0.458599,1.30303 1.1875,1.9375 0.7289,0.63447 1.83149,1.25639 3.15625,1.8125 2.64951,1.11222 6.21796,2.00808 9.71875,2.96875 3.50079,0.96067 6.92981,1.97463 9.53125,3.625 0.39662,0.25827 0.76909,0.57647 1.03125,1.03125 0.26216,0.45478 0.35422,1.05609 0.25,1.5625 -0.20843,1.01282 -0.83202,1.54698 -1.46875,2.03125 -1.27346,0.96853 -3.02326,1.77323 -4.78125,2.625 -1.75799,0.85177 -3.52492,1.72324 -4.40625,2.4375 -0.44066,0.35713 -0.60011,0.67813 -0.59375,0.65625 0.006,-0.0219 -0.11685,-0.2731 0.0937,-0.0625 0.55176,0.56709 2.27408,1.53816 4.46875,2.40625 2.19467,0.86809 4.88065,1.74562 7.59375,2.625 2.7131,0.87938 5.4575,1.74996 7.78125,2.65625 2.32375,0.90629 4.21769,1.74894 5.46875,3 0.62268,0.63998 1.06263,1.43596 1.15625,2.25 0.0936,0.81404 -0.12681,1.57803 -0.4375,2.21875 -0.62138,1.2814 -1.62031,2.2672 -2.53125,3.2188 -0.91094,0.9515 -1.73623,1.8603 -2.03125,2.4687 -0.14751,0.3042 -0.17035,0.5024 -0.15625,0.625 0.0141,0.1226 0.0352,0.2462 0.3125,0.5313 A 1.456677,1.456677 0 0 1 44.875,106 c 1.1936,1.2618 3.787,1.4392 6.71875,2.125 1.46587,0.3429 2.99891,0.862 4.3125,2 1.31359,1.138 2.29944,2.8706 2.71875,5.2188 0.17646,0.9945 0.70272,1.4788 1.96875,1.875 1.26603,0.3961 3.19435,0.4655 5.3125,0.1562 4.2363,-0.6186 9.26003,-2.6953 12.15625,-5.0938 0.17999,-0.1529 0.12996,-0.1125 0.1875,-0.1874 -0.1948,-0.1394 -0.65164,-0.4366 -1.40625,-0.8126 -0.89153,-0.4441 -1.9447,-0.8595 -2.75,-1.875 -0.40265,-0.5077 -0.67988,-1.3093 -0.5625,-2.0937 0.11738,-0.7844 0.54683,-1.437 1.125,-2.0313 4.74575,-4.7984 9.42194,-5.94409 12.9375,-6.87495 1.75778,-0.46543 3.22929,-0.89123 4.34375,-1.59375 1.11446,-0.70252 1.98508,-1.66373 2.71875,-3.53125 0.0809,-0.20217 0.0786,-0.26085 -0.0312,-0.5 C 94.5152,92.5421 94.22054,92.15952 93.75,91.75 92.80892,90.93096 91.23958,90.0508 89.6875,89.1875 88.13542,88.3242 86.62703,87.51926 85.53125,86.5 c -0.54789,-0.50963 -1.12202,-1.15163 -1.1875,-2.125 -0.0655,-0.97337 0.57257,-1.85163 1.3125,-2.375 2.74572,-1.93321 6.89628,-3.40491 11.40625,-4.96875 4.51,-1.56384 9.3611,-3.18213 13.3125,-5.03125 3.9514,-1.84912 6.8573,-3.97867 7.7812,-6.125 0.462,-1.07317 0.5467,-2.15861 0.063,-3.5625 -0.4842,-1.40389 -1.5896,-3.12083 -3.5626,-5.09375 L 72,13.5625 c -0.0107,-0.0101 -0.0205,-0.0212 -0.0312,-0.0312 -2.35772,-2.20774 -5.47837,-3.3125 -8.5625,-3.3125 z m 45.93755,80 c -2.6352,0.0951 -5.0596,1.30141 -6.0938,3.1875 0.2938,0.11052 0.5584,0.23497 1.0312,0.34375 1.3757,0.31646 3.2955,0.52074 5.1876,0.5625 1.892,0.0418 3.7841,-0.11747 4.9374,-0.4375 0.5049,-0.14009 0.7724,-0.28178 0.9063,-0.375 -0.2558,-1.09109 -0.8649,-1.86212 -1.9063,-2.4375 -1.0786,-0.59595 -2.5566,-0.89811 -4.0624,-0.84375 z m -70.50005,9.0625 c -2.08988,-0.14535 -4.71655,0.68656 -6,1.71875 -0.64172,0.5161 -0.91327,0.9944 -0.9375,1.3125 -0.0242,0.3181 0.0773,0.742 0.9375,1.4687 a 1.456677,1.456677 0 0 1 0,0.031 c 1.35282,1.17 2.88226,1.048 4.625,0.094 1.46095,-0.7999 2.7572,-2.3007 3.625,-3.875 -0.58503,-0.37729 -1.28454,-0.68281 -2.25,-0.74995 z m 61,0.625 c -0.4473,0.56855 -0.6909,1.09795 -0.71875,1.46875 -0.0384,0.5117 0.10661,0.9072 0.5,1.2812 0.7373,0.701 2.3391,1.0028 3.9688,0.125 -0.032,-0.189 -0.093,-0.4759 -0.3438,-0.8437 -0.4999,-0.7341 -1.6686,-1.5251 -3.40625,-2.03125 z"
       inkscape:label="top_inner_highlight" />
    <path
       style="opacity:0.3251231;fill:url(#linearGradient5905);fill-opacity:1;fill-rule:evenodd;stroke:none;filter:url(#filter5983-5)"
       d="m 95.5,172 c -5.09061,1.5019 -21.59202,7.7371 -19.25,12.5 2.2436,4.5627 40.6114,6.4013 46.5,20 2.5679,5.9301 -5.8924,10.4033 -3.75,16.5 1.6497,4.6948 14.412,16.4908 22.486,22.0678 6.333,4.3744 14.651,-3.5224 11.264,-10.0678 -5.3959,-10.4276 18.4427,-23.1991 29.25,-29 6.3052,-3.3844 -13,-20 -13,-20 0,0 -73.5,-12 -73.5,-12 z"
       id="path5897"
       transform="matrix(0.4883067,0,0,0.4883067,-5.810401,-7.704252)"
       sodipodi:nodetypes="csssssscs"
       inkscape:connector-curvature="0" />
    <path
       style="fill:url(#linearGradient5801);fill-opacity:1;fill-rule:evenodd;stroke:none"
       d="m 41.74217,78.53304 c 2.23193,1.63922 6.63675,0.65053 9.28212,1.84176 6.34952,2.85921 14.15494,6.04542 12.71857,0.40455 0,0 -1.61577,1.34204 -1.61577,1.34204 0,0 -0.0315,-2.55754 -0.0315,-2.55754 0,0 -3.75198,0.91629 -3.75198,0.91629 0,0 -2.90617,-2.33276 -4.23852,-3.10199 -0.27829,-0.16067 -1.7077,1.29281 -1.7077,1.29281 0,0 -0.25697,-1.5438 -0.25697,-1.5438 -1.85737,-0.19764 -3.69616,-0.28481 -5.31515,-0.27182 -3.88094,0.0311 -6.49906,0.63774 -5.08307,1.6777 z"
       id="path5783"
       sodipodi:nodetypes="cssssssssss"
       inkscape:connector-curvature="0" />
    <path
       style="opacity:0.4778325;fill:url(#radialGradient5811);fill-opacity:1;fill-rule:evenodd;stroke:none;filter:url(#filter5845)"
       d="m 182.75,187.25 c -1.7598,6.4783 21.6278,15.2799 19.875,19.75 -3.859,9.8416 -24.976,3.1375 -41.125,23.75 -2.3132,2.9525 3.25,13.5 2.5,12.25 -0.75,-1.25 -6.4649,-9.9629 -5,-14.25 4.5942,-13.4452 49.0128,-18.4575 40.875,-24.875 -4.6799,-3.6906 -21.5055,-13.8872 -17.125,-16.625 z"
       id="path5803"
       transform="matrix(0.4883067,0,0,0.4883067,-5.810401,-7.704252)"
       sodipodi:nodetypes="csssssc"
       inkscape:connector-curvature="0" />
    <path
       sodipodi:type="arc"
       style="opacity:0.5862069;fill:#ffffff;fill-opacity:1;fill-rule:nonzero;stroke:none;stroke-width:1;marker:none;visibility:visible;display:inline;overflow:visible;enable-background:accumulate"
       id="path6041"
       sodipodi:cx="233.9375"
       sodipodi:cy="201.1875"
       sodipodi:rx="2.5625"
       sodipodi:ry="1.0625"
       d="m 236.5,201.1875 c 0,0.5868 -1.14727,1.0625 -2.5625,1.0625 -1.41523,0 -2.5625,-0.4757 -2.5625,-1.0625 0,-0.5868 1.14727,-1.0625 2.5625,-1.0625 1.41523,0 2.5625,0.4757 2.5625,1.0625 z"
       transform="matrix(0.4883067,0,0,0.4883067,-6.359746,-8.009444)" />
    <path
       transform="matrix(0.3096579,0,0,0.4883067,27.52844,1.573576)"
       d="m 236.5,201.1875 c 0,0.5868 -1.14727,1.0625 -2.5625,1.0625 -1.41523,0 -2.5625,-0.4757 -2.5625,-1.0625 0,-0.5868 1.14727,-1.0625 2.5625,-1.0625 1.41523,0 2.5625,0.4757 2.5625,1.0625 z"
       sodipodi:ry="1.0625"
       sodipodi:rx="2.5625"
       sodipodi:cy="201.1875"
       sodipodi:cx="233.9375"
       id="path6043"
       style="opacity:0.5862069;fill:#ffffff;fill-opacity:1;fill-rule:nonzero;stroke:none;stroke-width:1;marker:none;visibility:visible;display:inline;overflow:visible;enable-background:accumulate"
       sodipodi:type="arc" />
    <path
       transform="matrix(0.5478563,0,0,0.4883067,-92.10223,1.115795)"
       d="m 236.5,201.1875 c 0,0.5868 -1.14727,1.0625 -2.5625,1.0625 -1.41523,0 -2.5625,-0.4757 -2.5625,-1.0625 0,-0.5868 1.14727,-1.0625 2.5625,-1.0625 1.41523,0 2.5625,0.4757 2.5625,1.0625 z"
       sodipodi:ry="1.0625"
       sodipodi:rx="2.5625"
       sodipodi:cy="201.1875"
       sodipodi:cx="233.9375"
       id="path6045"
       style="opacity:0.5862069;fill:#ffffff;fill-opacity:1;fill-rule:nonzero;stroke:none;stroke-width:1;marker:none;visibility:visible;display:inline;overflow:visible;enable-background:accumulate"
       sodipodi:type="arc" />
    <path
       style="opacity:0.2512315;fill:url(#linearGradient5822);fill-opacity:1;fill-rule:nonzero;stroke:none;stroke-width:2.0478933;marker:none;visibility:visible;display:inline;overflow:visible;enable-background:accumulate"
       d="m 36.67228,76.52865 c -7.15299,4.42411 -18.27403,6.03423 -6.10383,8.97264 -1.44971,-3.2281 3.13858,-2.87202 6.10383,-8.97264 z"
       id="path5049"
       sodipodi:nodetypes="ccc"
       inkscape:connector-curvature="0" />
    <path
       transform="matrix(0.4883067,0,0,0.4883067,57.7504,32.99748)"
       sodipodi:nodetypes="csszsscccsssc"
       id="path10207"
       d="m 8.83428,171.6472 c 0,0 22.59178,-2.1279 27.81802,-8.6464 3.05755,-3.8136 -12.15146,-8.2638 -8.86827,-12 12.35008,-14.0541 22.73076,-13.4673 37.05025,-19.3536 14.31949,-5.8862 9.03544,-8.769 4.40381,-11.3535 -7.9325,-4.4264 -25.58722,-9.1424 -19.74696,-19.6465 5.87688,-10.56993 57.34317,-25.24999 57.34317,-25.24999 15.5962,-5.32843 13.6391,-14.96447 6,-23 L 66.83428,6.647214 c 0,0 2.28296,43.388646 -7,61.999996 -11.4715,22.99914 -72.54408,48.66179 -47,51.49999 9,1 13.32065,4.0705 17,11 7.57631,14.2688 -21,40.5 -21,40.5 z"
       style="opacity:0.3631579;color:#000000;fill:url(#linearGradient1030);fill-opacity:1;fill-rule:nonzero;stroke:none;stroke-width:2;marker:none;visibility:visible;display:inline;overflow:visible;filter:url(#filter10997-7);enable-background:accumulate"
       inkscape:connector-curvature="0" />
  </g>
</svg>
