<?xml version="1.0" encoding="UTF-8" standalone="no"?>
<svg
   xmlns:dc="http://purl.org/dc/elements/1.1/"
   xmlns:cc="http://creativecommons.org/ns#"
   xmlns:rdf="http://www.w3.org/1999/02/22-rdf-syntax-ns#"
   xmlns:svg="http://www.w3.org/2000/svg"
   xmlns="http://www.w3.org/2000/svg"
   xmlns:sodipodi="http://sodipodi.sourceforge.net/DTD/sodipodi-0.dtd"
   xmlns:inkscape="http://www.inkscape.org/namespaces/inkscape"
   version="1.1"
   id="Layer_1"
   x="0px"
   y="0px"
   width="1000px"
   height="1000px"
   viewBox="0 0 1000 1000"
   enable-background="new 0 0 1000 1000"
   xml:space="preserve"
   sodipodi:docname="docs.svg"
   inkscape:version="1.0.2 (e86c870879, 2021-01-15)"><metadata
   id="metadata17"><rdf:RDF><cc:Work
       rdf:about=""><dc:format>image/svg+xml</dc:format><dc:type
         rdf:resource="http://purl.org/dc/dcmitype/StillImage" /><dc:title></dc:title></cc:Work></rdf:RDF></metadata><defs
   id="defs15">
	
	
<filter
   x="-0.35"
   width="1.7"
   y="-0.35"
   height="1.7"
   inkscape:menu-tooltip="Smooth rainbow colors warped along the edges and colorizable"
   inkscape:menu="Textures"
   inkscape:label="Warped Rainbow"
   style="color-interpolation-filters:sRGB;"
   id="filter33"><feGaussianBlur
     result="result8"
     stdDeviation="5"
     id="feGaussianBlur23" /><feTurbulence
     baseFrequency="0.015"
     numOctaves="2"
     type="fractalNoise"
     result="result7"
     seed="20"
     id="feTurbulence25" /><feDisplacementMap
     yChannelSelector="A"
     xChannelSelector="A"
     scale="100"
     result="result10"
     in="result7"
     in2="result8"
     id="feDisplacementMap27" /><feComposite
     in="result10"
     operator="atop"
     result="result2"
     in2="result8"
     id="feComposite29" /><feComposite
     in2="result2"
     operator="arithmetic"
     in="result10"
     result="fbSourceGraphic"
     k1="2.5"
     k3="0.5"
     id="feComposite31" /></filter></defs><sodipodi:namedview
   pagecolor="#ffffff"
   bordercolor="#666666"
   borderopacity="1"
   objecttolerance="10"
   gridtolerance="10"
   guidetolerance="10"
   inkscape:pageopacity="0"
   inkscape:pageshadow="2"
   inkscape:window-width="3840"
   inkscape:window-height="2139"
   id="namedview13"
   showgrid="false"
   inkscape:zoom="0.885"
   inkscape:cx="500"
   inkscape:cy="500"
   inkscape:window-x="1920"
   inkscape:window-y="0"
   inkscape:window-maximized="1"
   inkscape:current-layer="Layer_1" />
<g
   id="g8"
   style="fill:#008000;filter:url(#filter33)">
		<path
   fill="#ffffff"
   d="m 501.667,43.083 c 13.417,5.134 18.483,15.4 18.483,28.783 0,16.8 0,33.6 0,50.25 0,5.134 -0.483,5.45 -5.216,3.416 -12.633,-5.283 -25.433,-10.567 -38.083,-16.033 -3,-1.25 -5.533,-1.4 -8.367,0 -82.167,35 -164.333,70.016 -246.5,105.017 -21.167,9.016 -42.35,18.033 -63.516,27.067 -1.1,0.467 -2.684,0.616 -2.684,1.867 -0.167,1.55 1.583,1.867 2.533,2.483 16.6,9.5 34.767,14.617 53.566,17.733 24.8,4.2 49.617,4.2 73.95,-2.8 13.116,-3.733 25.433,-9.95 37.917,-15.4 42.033,-17.733 83.9,-35.617 125.783,-53.517 62.583,-26.766 125.3,-53.367 187.884,-80.134 5.7,-2.483 11.216,-4.984 17.85,-3.583 10.267,2.334 18.483,11.5 19.116,21.933 0.167,2.8 -1.583,3.416 -3.467,4.2 -21,9.016 -42.033,18.033 -62.884,26.917 -64,27.383 -127.984,54.75 -191.983,82.133 -23.851,10.117 -47.716,19.9 -71.267,30.65 -21.8,9.8 -39.35,24.733 -50.233,46.217 -6.634,12.917 -9.483,26.766 -9.483,41.233 0,154.783 0,309.433 0,464.233 0,1.4 0,2.8 0,4.2 0,6.216 0,6.216 -6,7.317 -46.15,7.467 -90.383,0.933 -132.884,-18.2 -11.05,-4.984 -21.167,-11.667 -29.85,-20.233 -10.75,-10.433 -16.116,-22.867 -16.116,-37.967 0,-120.417 0,-240.834 0,-361.234 0,-52.117 0.167,-104.233 -0.167,-156.2 -0.167,-17.583 7.75,-30.65 21.483,-40.916 10.267,-7.633 22.267,-11.667 33.817,-16.65 84.367,-36.1 168.6,-71.883 252.666,-107.8 26.217,-11.2 52.634,-22.417 78.85,-33.6 1.1,-0.467 2.05,-0.933 3.167,-1.4 5.952,-2.298 8.168,-1.365 11.635,0.018 z"
   id="path4"
   style="fill:#008000" />
		<path
   fill="#ffffff"
   d="m 899.867,512.917 c 0,89.15 -0.167,178.433 0.167,267.583 0,9.333 -4.266,14.167 -11.85,17.583 -15.8,7 -31.767,13.534 -47.567,20.383 -63.683,27.217 -127.367,54.45 -191.05,81.517 -35.067,14.933 -70,29.867 -105.067,44.8 -28.449,12.133 -58.15,15.233 -88.633,12.75 -23.233,-1.867 -45.667,-6.216 -67.317,-14.783 -15.484,-6.067 -29.867,-13.85 -42.2,-25.05 -12.017,-10.884 -17.533,-24.417 -17.533,-40.45 0,-172.533 0,-345.067 0,-517.6 0,-18.967 10.267,-32.2 25.917,-42 12.017,-7.467 25.284,-11.983 38.233,-17.417 75.684,-32.366 151.383,-64.416 226.9,-96.617 31.117,-13.233 62.583,-25.983 93.384,-39.983 19.283,-8.717 35.067,5.917 35.4,22.55 0.316,18.35 0.167,36.867 0,55.233 0,3.9 -0.483,4.2 -4.266,2.65 -13.116,-5.45 -26.383,-11.05 -39.5,-16.65 -2.367,-1.1 -4.584,-1.1 -6.967,0 -55.45,23.65 -110.767,47.283 -166.233,70.783 -40.933,17.417 -82,34.85 -122.933,52.266 -7.266,3.117 -14.683,6.216 -21.967,9.5 -0.95,0.467 -2.684,0.317 -2.684,1.867 0,1.25 1.583,1.55 2.533,2.184 10.117,5.917 20.867,10.117 32.083,13.067 29.85,8.083 60.216,10.433 90.7,3.416 14.383,-3.267 27.334,-10.117 40.617,-15.717 67.317,-28.633 134.467,-57.25 201.783,-85.867 39.35,-16.8 78.533,-33.45 117.867,-50.25 10.117,-4.35 18.8,-2.65 26.217,4.667 2.85,2.8 3.95,5.917 3.95,9.8 0.016,89.785 0.016,179.868 0.016,269.785 z"
   id="path6"
   style="fill:#008000" />
	</g>
</svg>
