<?xml version="1.0" encoding="UTF-8" standalone="no"?>
<svg
   xmlns:dc="http://purl.org/dc/elements/1.1/"
   xmlns:cc="http://creativecommons.org/ns#"
   xmlns:rdf="http://www.w3.org/1999/02/22-rdf-syntax-ns#"
   xmlns:svg="http://www.w3.org/2000/svg"
   xmlns="http://www.w3.org/2000/svg"
   xmlns:sodipodi="http://sodipodi.sourceforge.net/DTD/sodipodi-0.dtd"
   xmlns:inkscape="http://www.inkscape.org/namespaces/inkscape"
   viewBox="0 0 500 500"
   version="1.1"
   id="svg22"
   sodipodi:docname="phpunit-skelgen.svg"
   width="500"
   height="500"
   inkscape:version="0.92.4 (5da689c313, 2019-01-14)">
  <metadata
     id="metadata28">
    <rdf:RDF>
      <cc:Work
         rdf:about="">
        <dc:format>image/svg+xml</dc:format>
        <dc:type
           rdf:resource="http://purl.org/dc/dcmitype/StillImage" />
        <dc:title></dc:title>
      </cc:Work>
    </rdf:RDF>
  </metadata>
  <defs
     id="defs26">
    <clipPath
       clipPathUnits="userSpaceOnUse"
       id="clipPath3444">
      <path
         inkscape:connector-curvature="0"
         d="M 11.52,162 C 11.52,81.677 135.307,16.561 288,16.561 v 0 c 152.693,0 276.481,65.116 276.481,145.439 v 0 c 0,80.322 -123.788,145.439 -276.481,145.439 v 0 C 135.307,307.439 11.52,242.322 11.52,162"
         id="path3446" />
    </clipPath>
    <radialGradient
       cx="0"
       cy="0"
       fx="0"
       fy="0"
       gradientTransform="matrix(363.05789,0,0,-363.05789,177.52002,256.30713)"
       gradientUnits="userSpaceOnUse"
       id="radialGradient3452"
       r="1"
       spreadMethod="pad">
      <stop
         id="stop3454"
         offset="0"
         style="stop-opacity:1;stop-color:#aeb2d5" />
      <stop
         id="stop3456"
         offset="0.3"
         style="stop-opacity:1;stop-color:#aeb2d5" />
      <stop
         id="stop3458"
         offset="0.75"
         style="stop-opacity:1;stop-color:#484c89" />
      <stop
         id="stop3460"
         offset="1"
         style="stop-opacity:1;stop-color:#484c89" />
    </radialGradient>
    <clipPath
       clipPathUnits="userSpaceOnUse"
       id="clipPath3468">
      <path
         inkscape:connector-curvature="0"
         d="M 0,324 H 576 V 0 H 0 Z"
         id="path3470" />
    </clipPath>
  </defs>
  <sodipodi:namedview
     pagecolor="#ffffff"
     bordercolor="#666666"
     borderopacity="1"
     objecttolerance="10"
     gridtolerance="10"
     guidetolerance="10"
     inkscape:pageopacity="0"
     inkscape:pageshadow="2"
     inkscape:window-width="1920"
     inkscape:window-height="1015"
     id="namedview24"
     showgrid="false"
     inkscape:zoom="0.41875"
     inkscape:cx="317.61194"
     inkscape:cy="240"
     inkscape:window-x="0"
     inkscape:window-y="36"
     inkscape:window-maximized="1"
     inkscape:current-layer="svg22" />
  <g
     transform="matrix(0.61112072,0.61406278,-0.66958622,0.56044536,33.981462,33.3935)"
     id="g1451">
    <g
       transform="matrix(1.25,0,0,-1.25,-4.4,202.29875)"
       id="g3440">
      <g
         clip-path="url(#clipPath3444)"
         id="g3442">
        <g
           id="g3448">
          <g
             id="g3450">
            <path
               d="M 11.52,162 C 11.52,81.677 135.307,16.561 288,16.561 v 0 c 152.693,0 276.481,65.116 276.481,145.439 v 0 c 0,80.322 -123.788,145.439 -276.481,145.439 v 0 C 135.307,307.439 11.52,242.322 11.52,162"
               id="path3462"
               style="fill:url(#radialGradient3452);stroke:none"
               inkscape:connector-curvature="0" />
          </g>
        </g>
      </g>
    </g>
    <g
       transform="matrix(1.25,0,0,-1.25,-4.4,202.29875)"
       id="g3464">
      <g
         clip-path="url(#clipPath3468)"
         id="g3466">
        <g
           id="g3472"
           transform="translate(288,27.3594)">
          <path
             d="M 0,0 C 146.729,0 265.68,60.281 265.68,134.641 265.68,209 146.729,269.282 0,269.282 -146.729,269.282 -265.68,209 -265.68,134.641 -265.68,60.281 -146.729,0 0,0"
             id="path3474"
             style="fill:#777bb3;fill-opacity:1;fill-rule:nonzero;stroke:none"
             inkscape:connector-curvature="0" />
        </g>
      </g>
    </g>
  </g>
  <g
     transform="matrix(0.69353468,0.15229316,-0.15229316,0.69353468,45.423676,-38.779305)"
     id="g20">
    <path
       d="m 492.99,575.23 c -1.007,-3.294 -7.697,-25.767 -14.867,-49.942 l -13.036,-43.953 15.016,-18.218 c 8.26,-10.02 15.017,-20.96 15.017,-24.312 0,-10.416 -16.015,-6.348 -33.353,8.472 -18.872,16.131 -38.505,18.993 -38.505,5.613 0,-4.711 6.379,-16.028 14.177,-25.151 7.797,-9.122 14.264,-18.203 14.371,-20.179 0.427,-7.874 -13.157,-2.897 -24.12,8.839 -18.187,19.467 -34.97,26.742 -44.917,19.469 -7.48,-5.47 -6.238,-8.222 13.737,-30.44 19.703,-21.914 26.895,-34.994 19.243,-34.994 -1.495,0 -14.628,9.7 -29.183,21.557 -28.459,23.183 -51.906,28.656 -57.731,13.476 -2.209,-5.757 3.347,-13.756 19.313,-27.805 21.3,-18.743 28.273,-31.181 17.482,-31.181 -2.712,0 -15.663,8.483 -28.78,18.851 -28.185,22.279 -40.883,27.142 -50.353,19.282 -10.603,-8.799 -8.879,-12.714 16.997,-38.59 13.174,-13.174 23.952,-26.005 23.952,-28.515 0,-10.18 -16.885,-3.465 -36.307,14.438 -21.069,19.42 -39.491,27.304 -52.307,22.387 -11.251,-4.318 -8.797,-10.118 14.361,-33.946 11.856,-12.199 21.557,-25.209 21.557,-28.911 0,-8.991 -18.682,-21.645 -31.956,-21.645 -8.96,0 -11.97,4.659 -18.849,29.176 -10.837,38.62 -19.086,41.824 -56.176,21.82 -53.513,-28.86 -113.38,-96 -113.38,-127.15 0,-12.337 22.89,-30.899 64.212,-52.073 31.903,-16.347 37.271,-17.537 87.27,-19.348 45.958,-1.665 56.322,-0.58299 75.451,7.879 12.197,5.395 22.176,12.752 22.176,16.348 0,3.597 -7.546,19.07 -16.767,34.384 -9.222,15.314 -16.767,30.848 -16.767,34.52 0,6.25 26.451,25.64 35.032,25.679 2.141,0.01 10.173,-13.832 17.849,-30.761 13.364,-29.473 26.445,-41.12 38.096,-33.92 8.79,5.433 5.354,49.001 -5.651,71.652 -10.639,21.898 -9.497,32.411 2.443,22.501 3.609,-2.995 10.344,-13.832 14.966,-24.082 8.548,-18.956 26.524,-32.904 35.366,-27.439 11.833,7.313 11.065,31.378 -1.925,60.324 -14.231,31.709 -11.709,44.111 4.505,22.158 21.163,-28.653 26.253,-33.977 29.446,-30.797 5.621,5.599 -21.411,49.561 -50.907,82.789 -15.51,17.473 -28.2,32.743 -28.2,33.934 0,7.366 13.54,-1.035 36.182,-22.448 25.569,-24.182 50.048,-65.752 50.048,-84.989 0,-5.277 2.171,-10.937 4.825,-12.576 9.313,-5.756 11.022,13.595 3.09,34.995 -9.847,26.57 -7.44,30.357 6.936,10.912 13.262,-17.937 20.188,-18.584 27.487,-2.564 4.594,10.082 3.9,15.42 -4.021,30.947 -17.237,33.787 -8.803,46.984 10.743,16.81 5.952,-9.189 13.372,-16.734 16.488,-16.767 9.488,-0.099 12.531,19.419 6.077,38.975 -3.358,10.175 -4.562,20.044 -2.676,21.931 4.653,4.653 12.327,-8.286 12.418,-20.935 0.067,-9.385 3.278,-10.497 37.2,-12.884 20.42,-1.437 44.105,-4.062 52.635,-5.833 20.342,-4.224 39.583,0.87198 39.583,10.485 0,4.214 -21.72,29.397 -48.267,55.963 -41.693,41.722 -51.236,54.404 -70.065,93.107 -21.608,44.42 -31.379,58.66 -40.249,58.66 -2.529,0 -5.422,-2.695 -6.428,-5.988 z m 28.994,-54.248 c 2.717,-10.822 -19.478,-40.366 -30.326,-40.366 -7.775,0 -7.718,0.94898 1.823,30.496 4.368,13.528 8.833,27.829 9.923,31.782 1.604,5.816 3.326,5.359 9.033,-2.3961 3.879,-5.269 8.175,-14.052 9.547,-19.516 z m 16.251,-37.802 c 0,-3.859 -4.311,-9.325 -9.581,-12.145 -10.785,-5.772 -11.821,-3.555 -4.622,9.896 5.848,10.927 14.203,12.25 14.203,2.249 z m 19.162,-31.708 c 0,-5.692 -24.159,-15.366 -28.21,-11.297 -4.1071,4.125 18.674,21.817 23.919,18.575 2.36,-1.458 4.291,-4.734 4.291,-7.278 z m 27.413,-21.948 c 1.864,-5.6 -3.134,-7.813 -29.808,-13.194 l -14.372,-2.899 14.372,12.085 c 14.703,12.363 26.498,13.949 29.808,4.008 z m -87.455,-36.668 c 7.979,-13.015 7.959,-13.296 -0.57001,-7.742 -4.868,3.171 -16.234,15.716 -25.257,27.878 l -16.406,22.114 16.976,-14.372 c 9.337,-7.904 20.703,-20.449 25.257,-27.878 z m 119.34,-1.533 c 8.803,-12.077 8.803,-12.289 0,-9.823 -4.949,1.386 -21.932,4.117 -37.741,6.069 l -28.744,3.549 19.163,6.056 c 28.327,8.954 37.342,7.839 47.322,-5.851 z m -173.78,-3.093 c 8.794,-6.698 30.054,-46.329 26.669,-49.714 -2.262,-2.262 -18.773,18.309 -34.269,42.696 -8.78,13.818 -5.411,16.928 7.6,7.018 z m -82.558,-63.331 c 14.6,-16.629 39.015,-60.638 45.83,-82.613 2.391,-7.712 1.393,-10.779 -3.508,-10.779 -3.769,0 -13.493,13.474 -21.61,29.941 -8.117,16.468 -23.503,41.648 -34.191,55.957 -10.689,14.309 -19.434,27.858 -19.434,30.109 0,7.082 17.24,-4.764 32.913,-22.615 z M 311.31,293.004 c 15.948,-16.992 44.878,-72.62 44.878,-86.293 0,-14.23 -9.396,-14.641 -14.701,-0.64203 -10.417,27.491 -33.997,70.034 -53.294,96.156 -18.338,24.823 -18.797,26.137 -5.889,16.844 7.701,-5.544 20.754,-17.273 29.006,-26.065 z M 207.39,288.7 c 4.138,-11.695 12.421,-29.887 18.406,-40.426 27.724,-48.82 36.606,-63.389 47.708,-78.252 15.391,-20.605 10.835,-24.989 -30.407,-29.258 -37.872,-3.92 -70.49,0.384 -107.45,14.179 -25.813,9.634 -57.339,30.461 -52.522,34.697 1.317,1.159 21.258,14.299 44.313,29.201 23.054,14.902 41.917,28.974 41.917,31.27 0,2.297 -3.14,6.782 -6.977,9.966 -5.669,4.705 -12.165,2.076 -34.651,-14.026 -30.056,-21.523 -40.113,-18.348 -17.584,5.552 17.937,19.029 78.813,61.996 84.942,59.953 2.628,-0.87598 8.164,-11.161 12.303,-22.856 z m -44.877,-79.092 c -4.14,-4.141 -7.528,-10.752 -7.528,-14.692 0,-10.974 24.064,-40.058 33.145,-40.058 21.484,0 27.092,34.361 8.464,51.861 -13.117,12.323 -23.745,13.224 -34.081,2.889 z m 131.4,50.36 c 0,-2.479 -2.156,-4.508 -4.791,-4.508 -2.635,0 -4.791,3.361 -4.791,7.469 0,4.107 2.156,6.136 4.791,4.507 2.635,-1.628 4.791,-4.989 4.791,-7.468 z m -28.744,-16.767 c 0,-1.162 -2.156,-2.113 -4.79,-2.113 -2.635,0 -4.791,2.283 -4.791,5.074 0,2.79 2.156,3.741 4.791,2.112 2.634,-1.628 4.79,-3.911 4.79,-5.073 z"
       id="path2"
       inkscape:connector-curvature="0" />
    <rect
       x="153.3"
       y="156.48"
       width="71"
       height="65"
       id="rect4"
       style="fill:#ffffff;stroke:#ffffff;stroke-width:5" />
    <g
       stroke-linecap="null"
       stroke-linejoin="null"
       id="g18"
       style="fill:none;stroke-width:20;stroke-dasharray:none">
      <g
         id="g10"
         style="stroke:#ffffff">
        <path
           d="m 164.3,189.48 c 1,0 1.6934,-0.4588 3,-1 0.92387,-0.38269 2.2929,0.70709 3,0 0.70711,-0.70709 1,-1 2,-1 1,0 1.2929,-0.29291 2,-1 0.70711,-0.70709 1.6934,-0.4588 3,-1 0.92387,-0.38269 1.6934,-0.4588 3,-1 0.92387,-0.38269 2.0761,0.38269 3,0 1.3066,-0.5412 2.2929,-1.2929 3,-2 0.70711,-0.70709 1.6934,-0.4588 3,-1 0.92387,-0.38269 2,0 3,0 h 3 c 1,0 1,-1 2,-1 h 6 c 1,0 2,-1 3,-1 1,0 3,-1 5,-1 h 3 c 1,0 1.2929,-0.29291 2,-1 0.70711,-0.70709 1,-1 2,-1 h 3 c 1,0 1.6935,-0.4588 3,-1 0.92389,-0.38269 2.0761,-0.61731 3,-1 1.3066,-0.5412 2.2929,-1.2929 3,-2 0.70709,-0.70709 1.0761,-0.61731 2,-1 1.3066,-0.5412 2,-1 3,-1 h 5 v -1"
           id="path6"
           inkscape:connector-curvature="0" />
        <path
           d="m 167.3,189.48 c 1,-1 1,-2 3,-2 1,0 3.1522,0.76538 5,0 1.3066,-0.5412 3,-2 4,-2 2,0 3.0268,-1.7702 4,-2 2.1762,-0.51373 3,-2 4,-2 2,0 4.0761,-0.61731 5,-1 1.3066,-0.5412 2,-2 4,-2 1,0 2.4588,-0.69345 3,-2 0.38269,-0.92389 1,-1 2,-1 2,0 3.2284,1.148 6,0 1.3066,-0.5412 6,-1 7,-1 h 12 v -1"
           id="path8"
           inkscape:connector-curvature="0" />
      </g>
      <g
         id="g16"
         style="stroke:#000000">
        <path
           d="m 149.3,186.48 c 2,-1 3,-1 4,-2 1,-1 2.186,-0.69254 4,-2 1.1473,-0.8269 3.0761,-2.6173 4,-3 1.3066,-0.5412 1.6934,-1.4588 3,-2 0.92387,-0.38269 2,0 3,0 1,0 1.0761,-0.61731 2,-1 1.3066,-0.5412 3,-1 4,-1 2,0 5,-1 6,-1 h 7 c 1,0 2,-1 3,-1 h 17 c 1,0 1,-1 2,-1 h 12"
           id="path12"
           inkscape:connector-curvature="0" />
        <path
           d="m 174.3,154.48 c 1,0 2.2929,0.29291 3,1 0.70711,0.70709 0.29289,1.2929 1,2 0.70711,0.70709 2,1 2,2 0,1 0.29289,2.2929 1,3 0.70711,0.70709 2,1 2,2 0,1 1,1 1,2 0,1 0.29289,2.2929 1,3 0.70711,0.70709 1,1 1,2 0,1 1,1 1,2 0,1 0,2 1,2 0,0 -0.70711,1.2929 0,2 0.70711,0.70709 1.4588,0.69345 2,2 0.38269,0.92389 0.29289,1.2929 1,2 0.70711,0.70709 0.61731,2.0761 1,3 0.5412,1.3066 1.4588,1.6934 2,3 0.38269,0.92389 0,2 0,3 0,1 0.61731,1.0761 1,2 0.5412,1.3066 1.2929,1.2929 2,2 0.70711,0.70709 0,2 0,3 0,1 1,1 1,2 0,1 1,1 1,2 l 1,1 v 6"
           id="path14"
           inkscape:connector-curvature="0" />
      </g>
    </g>
  </g>
</svg>
