<?xml version="1.0" encoding="UTF-8" standalone="no"?>
<!-- Created with Inkscape (http://www.inkscape.org/) -->

<svg
   version="1.1"
   id="svg2"
   xml:space="preserve"
   width="120"
   height="120"
   viewBox="0 0 120 120"
   sodipodi:docname="discomp2abraflexi.svg"
   inkscape:version="1.2.2 (b0a8486541, 2022-12-01)"
   xmlns:inkscape="http://www.inkscape.org/namespaces/inkscape"
   xmlns:sodipodi="http://sodipodi.sourceforge.net/DTD/sodipodi-0.dtd"
   xmlns="http://www.w3.org/2000/svg"
   xmlns:svg="http://www.w3.org/2000/svg"
   xmlns:rdf="http://www.w3.org/1999/02/22-rdf-syntax-ns#"
   xmlns:cc="http://creativecommons.org/ns#"
   xmlns:dc="http://purl.org/dc/elements/1.1/"><metadata
     id="metadata8"><rdf:RDF><cc:Work
         rdf:about=""><dc:format>image/svg+xml</dc:format><dc:type
           rdf:resource="http://purl.org/dc/dcmitype/StillImage" /></cc:Work></rdf:RDF></metadata><defs
     id="defs6"><linearGradient
       id="linearGradient3803"
       y2="363.44"
       gradientUnits="userSpaceOnUse"
       x2="248.5"
       gradientTransform="matrix(-4.0158893e-4,-0.18031608,-0.18031608,4.0158893e-4,50.502182,200.5)"
       y1="104.84"
       x1="187.89"
       inkscape:collect="always"><stop
         id="stop3799"
         style="stop-color:#ffffff"
         offset="0" /><stop
         id="stop3801"
         style="stop-color:#009cf0;stop-opacity:0"
         offset="1" /></linearGradient></defs><sodipodi:namedview
     pagecolor="#ffffff"
     bordercolor="#666666"
     borderopacity="1"
     objecttolerance="10"
     gridtolerance="10"
     guidetolerance="10"
     inkscape:pageopacity="0"
     inkscape:pageshadow="2"
     inkscape:window-width="1920"
     inkscape:window-height="1176"
     id="namedview4"
     showgrid="false"
     inkscape:zoom="3.779535"
     inkscape:cx="46.698867"
     inkscape:cy="36.115554"
     inkscape:window-x="1920"
     inkscape:window-y="0"
     inkscape:window-maximized="1"
     inkscape:current-layer="g10"
     inkscape:showpageshadow="2"
     inkscape:pagecheckerboard="0"
     inkscape:deskcolor="#d1d1d1" /><g
     id="g10"
     inkscape:groupmode="layer"
     inkscape:label="ink_ext_XXXXXX"
     transform="matrix(1.3333333,0,0,-1.3333333,0,120)"><g
       id="g4541"
       transform="matrix(1.11339,0,0,1.11339,-130.3489,1.4797236)"><path
         d="M 170.868,0 184.246,23.1617 197.617,0 Z"
         style="fill:#f9ae2d;fill-opacity:1;fill-rule:nonzero;stroke:none;stroke-width:0.1"
         id="path22"
         inkscape:connector-curvature="0" /><path
         d="m 170.868,0 -13.375,23.1617 h 26.753 z"
         style="fill:#d28b25;fill-opacity:1;fill-rule:nonzero;stroke:none;stroke-width:0.1"
         id="path24"
         inkscape:connector-curvature="0" /><path
         d="m 157.493,23.1617 13.375,23.168 13.378,-23.168 z"
         style="fill:#936327;fill-opacity:1;fill-rule:nonzero;stroke:none;stroke-width:0.1"
         id="path26"
         inkscape:connector-curvature="0" /><path
         d="M 170.868,46.3297 H 144.121 L 117.365,0 h 26.756 l 26.747,46.3297"
         style="fill:#767a7c;fill-opacity:1;fill-rule:nonzero;stroke:none;stroke-width:0.1"
         id="path28"
         inkscape:connector-curvature="0" /></g><g
       id="g433"
       transform="matrix(0.28374388,0,0,0.28374388,50.243663,32.593173)"><path
         style="fill:#8e8c8c;stroke-width:0.24"
         d="m 45.299201,135.34391 c -2.1e-4,2.64 0.03488,3.75274 0.07793,2.47276 0.04305,-1.27998 0.04328,-3.43998 4.8e-4,-4.8 -0.0429,-1.36002 -0.0781,-0.31276 -0.07831,2.32724 z M 119.1373,131.2839 c 0.0115,0.2796 0.0684,0.33646 0.145,0.14501 0.0693,-0.17325 0.0608,-0.38025 -0.019,-0.46001 -0.0797,-0.0797 -0.13649,0.062 -0.12607,0.315 z M 2.2851399,133.66391 c 0.00525,0.396 0.05865,0.52894 0.119535,0.29543 0.060825,-0.23351 0.05685,-0.55751 -0.00892,-0.72 -0.0657,-0.16249 -0.1155225,0.0286 -0.1106325,0.42457 z m -59.7878419,0.02 c 0.01155,0.27959 0.0684,0.33646 0.145005,0.145 0.0693,-0.17325 0.06083,-0.38025 -0.0189,-0.46 -0.07976,-0.0797 -0.136477,0.062 -0.126052,0.315 z m 0.978945,0.10001 c 0,0.33 0.05445,0.465 0.121058,0.3 0.0666,-0.165 0.0666,-0.435 0,-0.6 -0.0666,-0.165 -0.121058,-0.03 -0.121058,0.3 z m 147.341052,-0.10001 c 0.01155,0.2796 0.0684,0.33646 0.145005,0.14501 0.0693,-0.17325 0.06082,-0.38025 -0.01897,-0.46001 -0.07975,-0.0797 -0.136485,0.062 -0.126068,0.315 z m -161.658942,2.97998 c -0.391298,0.16814 -0.405,0.20938 -0.07418,0.22313 0.223215,0.009 0.47259,-0.0911 0.554167,-0.22313 0.170558,-0.27597 0.162218,-0.27597 -0.48,0 z m -46.965003,0.16394 c 0.17325,0.0693 0.38025,0.0608 0.46,-0.0189 0.0797,-0.0798 -0.062,-0.13647 -0.315,-0.12605 -0.27959,0.0115 -0.33645,0.0684 -0.145,0.145 z m 27.105002,-0.005 c 0.165,0.0666 0.435,0.0666 0.6,0 0.165,-0.0666 0.03,-0.12105 -0.3,-0.12105 -0.33,0 -0.465,0.0545 -0.3,0.12105 z m 2.16,0.0104 c 0.297,0.0572 0.783,0.0572 1.08,0 0.297,-0.0572 0.054,-0.10401 -0.54,-0.10401 -0.594,0 -0.837,0.0468 -0.54,0.10401 z m 9.615001,-0.005 c 0.17325,0.0693 0.38025,0.0608 0.459997,-0.0189 0.07976,-0.0797 -0.06203,-0.13647 -0.315,-0.12606 -0.279585,0.0115 -0.33645,0.0684 -0.144997,0.145 z m 3.825,-0.005 c 0.165,0.0666 0.435,0.0666 0.6,0 0.165,-0.0666 0.03,-0.12105 -0.3,-0.12105 -0.33,0 -0.465,0.0545 -0.3,0.12105 z m 27.615001,0.005 c 0.17325,0.0693 0.38025,0.0608 0.459997,-0.0189 0.07975,-0.0797 -0.06202,-0.13647 -0.315,-0.12606 -0.279585,0.0115 -0.33645,0.0684 -0.144997,0.145 z m 15.585,-0.005 c 0.165,0.0666 0.435,0.0666 0.6,0 0.165,-0.0666 0.03,-0.12105 -0.3,-0.12105 -0.33,0 -0.465,0.0545 -0.3,0.12105 z m 9.6,0 c 0.165,0.0666 0.435,0.0666 0.6,0 0.165,-0.0666 0.03,-0.12105 -0.3,-0.12105 -0.33,0 -0.465,0.0545 -0.3,0.12105 z m 10.095,0.005 c 0.17325,0.0693 0.38025,0.0608 0.459998,-0.0189 0.07976,-0.0797 -0.06203,-0.13647 -0.315,-0.12606 -0.279585,0.0115 -0.33645,0.0684 -0.144998,0.145 z m 18.480001,0 c 0.17325,0.0693 0.38025,0.0608 0.4599975,-0.0189 0.079755,-0.0797 -0.062025,-0.13647 -0.315,-0.12606 -0.279585,0.0115 -0.33645,0.0684 -0.1449975,0.145 z m 49.440001,0 c 0.17325,0.0693 0.38025,0.0608 0.459998,-0.0189 0.07975,-0.0797 -0.06203,-0.13647 -0.315,-0.12606 -0.279585,0.0115 -0.33645,0.0684 -0.144998,0.145 z m 4.08,0 c 0.17325,0.0693 0.38025,0.0608 0.459998,-0.0189 0.07975,-0.0797 -0.06202,-0.13647 -0.315,-0.12606 -0.279585,0.0115 -0.33645,0.0684 -0.144998,0.145 z m 8.989561,0.002 c 0.23352,0.0608 0.55752,0.0568 0.72,-0.009 0.162502,-0.0658 -0.02858,-0.11552 -0.42456,-0.11063 -0.396,0.005 -0.528938,0.0587 -0.29544,0.11953 z m 2.278245,0.004 c 0.298537,0.0574 0.730537,0.0552 0.96,-0.005 0.22944,-0.0601 -0.01485,-0.10704 -0.542805,-0.10437 -0.528,0.003 -0.715755,0.0518 -0.417195,0.10921 z m 10.332195,-0.006 c 0.173257,0.0693 0.380257,0.0608 0.460005,-0.0189 0.07975,-0.0797 -0.06203,-0.13647 -0.315,-0.12606 -0.2796,0.0115 -0.33645,0.0684 -0.145005,0.145 z m -171.135005,1.67493 c 0.165,0.0666 0.435,0.0666 0.6,0 0.165,-0.0666 0.03,-0.12105 -0.3,-0.12105 -0.33,0 -0.465,0.0545 -0.3,0.12105 z m 159.600005,0 c 0.165,0.0666 0.435,0.0666 0.6,0 0.165,-0.0666 0.03,-0.12105 -0.3,-0.12105 -0.33,0 -0.465,0.0545 -0.3,0.12105 z m -134.522306,11.77576 2.577705,0.0815 0.06585,11.5719 0.06585,11.5719 -0.0038,-11.64 -0.0037,-11.64 -2.64,-0.0134 -2.64,-0.0134 2.577697,0.0815 z m 113.402305,0.002 c 0.693,0.0485 1.827,0.0485 2.52,0 0.693,-0.0485 0.126,-0.0881 -1.26,-0.0881 -1.386,0 -1.953,0.0397 -1.26,0.0881 z m 11.769405,9.8e-4 c 0.830175,0.047 2.126175,0.0466 2.88,-9.8e-4 0.753826,-0.0475 0.07463,-0.0859 -1.509405,-0.0855 -1.584,4.8e-4 -2.20077,0.0393 -1.370595,0.0863 z m 13.367738,-0.003 2.278253,0.0824 0.06585,11.57134 0.06585,11.57133 -0.0038,-11.64 -0.0037,-11.64 -2.340555,-0.0138 -2.340548,-0.0138 2.278245,0.0824 z m 12.416303,-2.4e-4 2.573475,0.0814 0.07642,3.29195 0.07642,3.29195 -0.0098,-3.36 -0.0098,-3.36 -2.64,-0.0134 -2.64,-0.0134 2.573445,0.0814 z m 2.62848,14.99117 c -0.02303,1.54321 0.03907,2.85626 0.138075,2.9179 0.099,0.0616 0.150915,-0.769 0.115343,-1.84584 -0.11652,-3.52818 -0.210743,-3.92685 -0.253418,-1.07206 z m -126.806928,-0.84192 c 0.17325,0.0693 0.38025,0.0608 0.459997,-0.0189 0.07975,-0.0798 -0.06203,-0.13648 -0.315,-0.12606 -0.279585,0.0115 -0.33645,0.0684 -0.144997,0.145 z m 130.545003,3.8351 c 0.165,0.0666 0.435,0.0666 0.6,0 0.165,-0.0666 0.03,-0.12106 -0.3,-0.12106 -0.33,0 -0.465,0.0545 -0.3,0.12106 z m 3.84,0 c 0.165,0.0666 0.435,0.0666 0.6,0 0.165,-0.0666 0.03,-0.12106 -0.3,-0.12106 -0.33,0 -0.465,0.0545 -0.3,0.12106 z m 3.840003,0 c 0.165,0.0666 0.435,0.0666 0.6,0 0.165,-0.0666 0.03,-0.12106 -0.3,-0.12106 -0.33,0 -0.465,0.0545 -0.3,0.12106 z m 19.455,1.445 c 0.17326,0.0693 0.38026,0.0608 0.46,-0.0189 0.0798,-0.0798 -0.062,-0.13647 -0.315,-0.12605 -0.2796,0.0115 -0.33645,0.0684 -0.145,0.145 z m 0.10956,2.40237 c 0.23352,0.0609 0.55752,0.0569 0.72,-0.009 0.1625,-0.0657 -0.0286,-0.11553 -0.42456,-0.11063 -0.396,0.005 -0.52894,0.0587 -0.29544,0.11953 z"
         id="path184" /><g
         id="g200"
         transform="matrix(0.75000002,0,0,-0.75000002,-179.97865,217.29293)"><path
           style="fill:#acca58;stroke-width:0.32"
           d="m 63.649334,102.17203 c -0.331958,-0.33196 -0.250828,-1.38667 0.106666,-1.38667 0.176,0 0.32,0.36 0.32,0.8 0,0.83778 -0.07392,0.93942 -0.426666,0.58667 z M 63.15521,99.665362 c -0.02637,-0.352 -0.122045,-1 -0.212605,-1.44 l -0.164659,-0.8 0.342764,0.785011 c 0.188522,0.431754 0.284192,1.079754 0.212605,1.44 -0.126803,0.638097 -0.131395,0.638487 -0.178105,0.01498 z m 0.997491,-0.96 c -0.0074,-0.704 0.09608,-2.072 0.229891,-3.04 0.210262,-1.521018 0.245117,-1.586195 0.256707,-0.48 0.0074,0.704 -0.09608,2.072 -0.229891,3.04 -0.210262,1.521018 -0.245117,1.586195 -0.256707,0.48 z m -1.796701,-2.76 c -0.266768,-1.33384 -0.0083,-1.592365 0.28,-0.28 0.121498,0.553171 0.154198,1.072467 0.07268,1.153994 -0.08153,0.08153 -0.240235,-0.311773 -0.35268,-0.873994 z m -0.494736,-2.093827 c -0.01389,-0.205607 -0.108138,-0.637607 -0.209427,-0.96 -0.175056,-0.557191 -0.166026,-0.557888 0.182649,-0.01411 0.201744,0.31463 0.295988,0.74663 0.209424,0.96 -0.113593,0.279997 -0.164412,0.283926 -0.182646,0.01411 z m -1.045021,-3.543347 c -0.296864,-1.00649 -0.491536,-1.878199 -0.432601,-1.937133 0.171833,-0.171834 1.1956,3.104953 1.07855,3.452137 -0.05841,0.173236 -0.349082,-0.508515 -0.645949,-1.515004 z m 4.020771,-2.322826 c 0,-2.024 0.05196,-2.852 0.115463,-1.84 0.0635,1.012 0.0635,2.668 0,3.68 -0.0635,1.012 -0.115463,0.184 -0.115463,-1.84 z m -4.89575,-0.213827 c -0.01389,-0.205607 -0.108138,-0.637607 -0.209427,-0.96 -0.175056,-0.557191 -0.166026,-0.557888 0.182649,-0.01411 0.201744,0.31463 0.295988,0.74663 0.209424,0.96 -0.113593,0.279997 -0.164412,0.283926 -0.182646,0.01411 z m -0.785731,-2.198544 c -0.308794,-0.804701 -0.217699,-1.012336 0.159529,-0.363629 0.186781,0.3212 0.272192,0.651411 0.189802,0.733802 -0.08239,0.08239 -0.23959,-0.08419 -0.349331,-0.370173 z M 57.513248,81.718424 C 53.87071,73.543663 47.16384,64.715526 40.136413,58.845598 36.763676,56.028392 30.940311,51.987563 27.516,50.088302 c -1.188,-0.658912 -2.16,-1.270843 -2.16,-1.359847 0,-0.231274 3.856629,1.920022 6.529089,3.642041 8.742786,5.633478 15.96749,12.726724 21.311049,20.923276 2.015408,3.091462 5.971929,10.746192 5.696678,11.02144 -0.08465,0.08465 -0.705453,-1.083908 -1.379568,-2.596788 z m 6.751514,-1.363974 c -0.128484,-1.292998 -0.164192,-2.420326 -0.07935,-2.505168 0.211411,-0.211408 0.635245,3.903699 0.456471,4.431984 -0.07893,0.233254 -0.248637,-0.633814 -0.377121,-1.926816 z m 9.14527,0.283274 c -0.42192,-2.04273 -0.332781,-3.129869 0.100317,-1.223472 0.235453,1.036419 0.242307,1.039929 0.490323,0.25111 0.226512,-0.720426 0.251533,-0.688595 0.251533,0.32 0,0.616 -0.09654,1.464774 -0.214544,1.886166 -0.171786,0.613479 -0.296864,0.3676 -0.627629,-1.233804 z M 72.596,77.065362 c -0.266768,-1.33384 -0.0083,-1.592365 0.28,-0.28 0.121498,0.553171 0.154198,1.072467 0.07267,1.153994 -0.08152,0.08153 -0.240225,-0.311773 -0.35267,-0.873994 z m 1.850938,-4.6 c -3.2e-4,-2.992 0.04773,-4.259072 0.106883,-2.815712 0.05916,1.443357 0.05946,3.891357 6.4e-4,5.44 -0.05878,1.54864 -0.107184,0.367712 -0.107552,-2.624288 z m -10.833159,3.502221 c -0.120477,-0.642189 -0.155049,-1.231619 -0.07682,-1.30984 0.07822,-0.07822 0.240793,0.383206 0.361267,1.025398 0.120477,0.642189 0.155049,1.231619 0.07682,1.30984 -0.07822,0.07822 -0.240793,-0.383206 -0.361267,-1.025398 z m 8.325079,-1.285079 c -0.117703,-0.468963 -0.152292,-0.914374 -0.07686,-0.989804 0.07543,-0.07543 0.233443,0.246556 0.351145,0.71552 0.117703,0.468963 0.152292,0.914374 0.07686,0.989804 -0.07543,0.07543 -0.233443,-0.246556 -0.351145,-0.71552 z M 62.956,73.265362 c -0.121498,-0.553171 -0.148902,-1.077763 -0.0609,-1.165763 0.088,-0.088 0.259404,0.292592 0.380902,0.845763 0.121498,0.553171 0.148902,1.077763 0.0609,1.165763 -0.088,0.088 -0.259404,-0.292592 -0.380902,-0.845763 z m 8.036922,-1.476922 c -0.28328,-0.831385 -0.459671,-1.566995 -0.391978,-1.634688 0.06769,-0.06769 0.354851,0.557149 0.638134,1.388532 0.28328,0.831385 0.459671,1.566995 0.391978,1.634688 -0.06769,0.06769 -0.354851,-0.557149 -0.638134,-1.388532 z M 61.696838,69.421692 C 59.845011,64.701694 55.74809,59.839818 51.318774,57.105888 49.394771,55.918326 48.653382,55.272147 50.076,56.022713 c 3.374422,1.780328 7.281914,5.327203 9.456675,8.583932 1.228115,1.839117 3.44105,6.667658 3.17688,6.931831 -0.07198,0.07198 -0.527705,-0.88057 -1.012717,-2.116784 z m 8.036512,-0.811204 c -0.751734,-1.576406 -0.645977,-1.844652 0.13993,-0.354931 0.356947,0.676611 0.59239,1.2868 0.52321,1.355984 -0.06918,0.06918 -0.367594,-0.381293 -0.66314,-1.001053 z m -1.030508,-2.086416 c -0.11601,-0.187708 -0.142298,-0.40992 -0.05842,-0.493801 0.08388,-0.08388 0.237779,0.0697 0.342,0.341289 0.216377,0.563876 0.03197,0.66306 -0.283584,0.152512 z m 5.147702,-1.753256 c -0.122403,-0.81626 -0.157101,-1.549564 -0.0771,-1.629564 0.08,-0.08 0.245607,0.522395 0.368013,1.338656 0.122403,0.81626 0.157101,1.549566 0.0771,1.629566 -0.08,0.08 -0.245607,-0.522397 -0.368013,-1.338658 z M 67.756,64.625362 c -0.27304,-0.528 -0.424435,-0.96 -0.336435,-0.96 0.088,0 0.383395,0.432 0.656435,0.96 0.27304,0.528 0.424435,0.96 0.336435,0.96 -0.088,0 -0.383395,-0.432 -0.656435,-0.96 z m -1.921728,-3.12 c -0.666787,-1.012 -1.656416,-2.416 -2.199174,-3.12 -0.542759,-0.704 -0.737735,-1.082486 -0.43328,-0.84108 0.915673,0.726054 4.389449,5.80108 3.970745,5.80108 -0.06927,0 -0.671504,-0.828 -1.338291,-1.84 z m 15.12393,1.2 c -0.353789,-1.212321 -0.310384,-1.796182 0.102816,-1.382983 0.18976,0.189759 0.296784,0.758559 0.23783,1.264 l -0.107184,0.918983 z m -7.739344,-0.822857 c -0.117703,-0.468964 -0.152292,-0.914377 -0.07686,-0.989805 0.07543,-0.07543 0.233443,0.246555 0.351145,0.715519 0.117703,0.468964 0.152292,0.914377 0.07686,0.989805 -0.07543,0.07543 -0.233443,-0.246555 -0.351145,-0.715519 z m 8.252502,-3.657143 c 0,-1.672 0.05393,-2.356 0.119853,-1.52 0.06592,0.836 0.06592,2.204 0,3.04 -0.06592,0.836 -0.119853,0.152 -0.119853,-1.52 z m -1.212502,1.737143 c -0.117703,-0.468964 -0.152292,-0.914377 -0.07686,-0.989805 0.07543,-0.07543 0.233443,0.246555 0.351145,0.715519 0.117703,0.468964 0.152292,0.914377 0.07686,0.989805 -0.07543,0.07543 -0.233443,-0.246555 -0.351145,-0.715519 z m -7.517594,0.289029 c -0.01389,-0.205605 -0.108138,-0.637605 -0.209427,-0.96 -0.175056,-0.55719 -0.166026,-0.557888 0.182649,-0.01412 0.201744,0.314631 0.295988,0.746631 0.209424,0.96 -0.113593,0.279999 -0.164412,0.283926 -0.182646,0.01412 z m -0.838422,-2.047462 c -0.11601,-0.187709 -0.142298,-0.40992 -0.05842,-0.493801 0.08388,-0.08388 0.237779,0.0697 0.342,0.34129 0.216377,0.563874 0.03197,0.663059 -0.283584,0.152511 z m 7.400192,-1.127642 c -1.685613,-4.5744 -5.76409,-9.483472 -10.40514,-12.524182 -1.508041,-0.988034 -2.855107,-1.892193 -2.993478,-2.009241 -0.138371,-0.117048 0.653629,0.0087 1.76,0.27948 1.56807,0.383752 1.843248,0.532223 1.248083,0.673395 -0.704995,0.167224 -0.631427,0.269879 0.96,1.339591 2.412855,1.621852 5.578426,4.848937 7.194058,7.33385 1.48928,2.290574 3.087005,5.663351 2.920057,6.164194 -0.05756,0.172689 -0.365174,-0.393 -0.68358,-1.257087 z M 70.52855,55.698587 c -1.484953,-2.291672 -4.442083,-4.879143 -7.196966,-6.2973 -1.328243,-0.683752 -2.362707,-1.295467 -2.29881,-1.359366 0.245962,-0.24596 4.562631,2.244466 6.138109,3.541273 1.744355,1.435812 3.381037,3.332213 4.144499,4.802168 0.711882,1.370642 0.330794,1.038015 -0.786832,-0.686775 z m -11.358032,-2.11288 c -3.424156,-3.290243 -8.518457,-6.984586 -12.609372,-9.144208 -1.097168,-0.579204 -1.961168,-1.085727 -1.92,-1.125608 0.04117,-0.03988 0.858262,0.08294 1.815763,0.272927 1.263715,0.25075 1.571293,0.404935 1.122118,0.562498 -0.540093,0.189454 -0.476617,0.289921 0.499091,0.789932 2.887245,1.479601 8.106567,5.412718 11.328282,8.536637 1.952278,1.893018 3.4776,3.440935 3.3896,3.439813 -0.088,-0.0011 -1.719469,-1.500517 -3.625482,-3.331991 z M 48.396,55.345362 c -0.288413,-0.186387 -0.327882,-0.312156 -0.09889,-0.3151 0.209612,-0.0027 0.470112,0.1391 0.578886,0.3151 0.245536,0.397288 0.134758,0.397288 -0.48,0 z m -2.24,-0.96 c -0.616,-0.337246 -0.976,-0.613174 -0.8,-0.613174 0.176,0 0.824,0.275928 1.44,0.613174 0.616,0.337246 0.976,0.613174 0.8,0.613174 -0.176,0 -0.824,-0.275928 -1.44,-0.613174 z m 34.737779,-1.137778 c -0.120477,-0.642191 -0.155049,-1.23162 -0.07682,-1.309842 0.07822,-0.07822 0.240793,0.383207 0.361267,1.025398 0.120477,0.642191 0.155049,1.23162 0.07682,1.309842 -0.07822,0.07822 -0.240793,-0.383207 -0.361267,-1.025398 z M 42.956,53.105362 c -0.792,-0.332333 -1.224,-0.601608 -0.96,-0.598388 0.537853,0.0066 3.222074,1.187593 2.72,1.196776 -0.176,0.0032 -0.968,-0.266055 -1.76,-0.598388 z m -2.72,-0.96 c -0.421997,-0.181338 -0.476499,-0.28101 -0.16,-0.292609 0.264,-0.0097 0.696,0.121999 0.96,0.292609 0.58495,0.378023 0.07971,0.378023 -0.8,0 z m -2.08,-0.64 c -0.426667,-0.275733 -0.426667,-0.3102 0,-0.3102 0.264,0 0.696,0.13959 0.96,0.3102 0.426666,0.275733 0.426666,0.3102 0,0.3102 -0.264,0 -0.696,-0.13959 -0.96,-0.3102 z m 41.776784,-1.24278 C 79.263011,48.777294 77.272093,46.797658 75.276,45.632194 c -0.792,-0.462428 -1.27641,-0.84214 -1.076464,-0.843805 0.624918,-0.0052 4.083546,2.458646 4.786886,3.410074 0.865255,1.170457 1.814935,3.00821 1.643245,3.179899 -0.07344,0.07344 -0.387037,-0.428662 -0.696883,-1.11578 z M 36.076,50.865362 c -0.403404,-0.173349 -0.462553,-0.275017 -0.16,-0.275017 0.264,0 0.768,0.123757 1.12,0.275017 0.403404,0.173349 0.462553,0.275017 0.16,0.275017 -0.264,0 -0.768,-0.123757 -1.12,-0.275017 z m -2.4,-0.64 c -0.643114,-0.205961 -0.674491,-0.258049 -0.16,-0.265611 0.352,-0.0052 0.928,0.114351 1.28,0.265611 0.815432,0.350403 -0.02587,0.350403 -1.12,0 z m -2.4,-0.64 c -0.403404,-0.173349 -0.462553,-0.275017 -0.16,-0.275017 0.264,0 0.768,0.123757 1.12,0.275017 0.403404,0.173349 0.462553,0.275017 0.16,0.275017 -0.264,0 -0.768,-0.123757 -1.12,-0.275017 z m -2.56,-0.64 c -0.815432,-0.350403 0.02587,-0.350403 1.12,0 0.643114,0.205961 0.674491,0.258049 0.16,0.265611 -0.352,0.0052 -0.928,-0.114351 -1.28,-0.265611 z m -5.06425,-0.863029 c -1.145678,-0.601997 -0.894336,-0.875468 0.55477,-0.603615 0.805669,0.151145 1.069893,0.341701 0.940684,0.678413 -0.212078,0.552668 -0.310693,0.547735 -1.495454,-0.0748 z m 2.50425,0.223029 -0.64,-0.275017 h 0.64 c 0.352,0 0.928,0.123757 1.28,0.275017 l 0.64,0.275017 h -0.64 c -0.352,0 -0.928,-0.123757 -1.28,-0.275017 z m 33.44,-0.64 c -0.264,-0.17061 -0.336,-0.3102 -0.16,-0.3102 0.176,0 0.536,0.13959 0.8,0.3102 0.264,0.17061 0.336,0.3102 0.16,0.3102 -0.176,0 -0.536,-0.13959 -0.8,-0.3102 z m -2.72,-0.987202 c -0.88,-0.33968 -1.183904,-0.536731 -0.675338,-0.437893 1.006327,0.195579 3.11496,1.052075 2.595338,1.05419 -0.176,7.04e-4 -1.04,-0.276617 -1.92,-0.616297 z m -4.32,-1.23952 c -0.968,-0.323192 -1.616,-0.600438 -1.44,-0.616103 0.176,-0.01566 1.184,0.244428 2.24,0.577982 1.056,0.333555 1.704,0.610802 1.44,0.616104 -0.264,0.0053 -1.272,-0.25479 -2.24,-0.577983 z m -3.68,-0.973278 c -0.81543,-0.350403 0.02586,-0.350403 1.12,0 0.643114,0.205961 0.674493,0.258049 0.16,0.265611 -0.352,0.0052 -0.928,-0.114351 -1.28,-0.265611 z m 23.68,0 c -0.421997,-0.181338 -0.476499,-0.28101 -0.16,-0.292609 0.264,-0.0097 0.696,0.121999 0.96,0.292609 0.58495,0.378023 0.07971,0.378023 -0.8,0 z m -2.24,-0.64 c -0.403405,-0.173349 -0.462554,-0.275017 -0.16,-0.275017 0.264,0 0.768,0.123757 1.12,0.275017 0.403405,0.173349 0.462554,0.275017 0.16,0.275017 -0.264,0 -0.768,-0.123757 -1.12,-0.275017 z"
           id="path186" /><path
           style="fill:#9ccb19;stroke-width:0.32"
           d="m 63.436,99.873112 c 0,-0.501734 -0.126058,-1.329734 -0.280131,-1.84 -0.154071,-0.510262 -0.455466,-1.71975 -0.669767,-2.68775 -0.462259,-2.088051 -0.694217,-2.90312 -1.730304,-6.08 C 57.494822,79.266463 52.621562,71.110511 45.196,63.224278 40.691446,58.440269 32.871438,52.531211 27.037184,49.502871 25.175806,48.536701 24.320991,47.716089 25.596,48.119352 c 0.308,0.09741 2.864,0.766401 5.68,1.486635 12.92817,3.306572 19.462541,6.241776 24.431507,10.9745 7.564195,7.204568 10.076471,18.420545 8.485859,37.884875 -0.181923,2.226208 -0.757366,3.295808 -0.757366,1.40775 z m 9.972342,-20.84775 c -1.8851,-7.389373 -4.41184,-13.369859 -7.773952,-18.4 C 63.162518,56.92713 56.684045,50.564167 52.556,47.780153 c -1.848,-1.246318 -3.841382,-2.512622 -4.429738,-2.814008 -1.453625,-0.744621 -1.04103,-0.997425 0.82056,-0.502769 11.805901,3.137025 16.101744,5.096332 19.728762,8.998158 4.23583,4.556769 5.662102,9.511643 5.608464,19.483828 -0.0175,3.256 -0.139056,6.28 -0.270096,6.72 -0.218278,0.732925 -0.269056,0.679264 -0.60561,-0.64 z m 7.56449,-17.92 c -0.122742,-0.264 -0.432186,-1.2 -0.687658,-2.08 -1.624582,-5.596108 -5.745356,-11.089134 -10.940857,-14.584252 -2.10648,-1.417072 -1.96784,-1.431538 2.251683,-0.23494 5.435341,1.541386 8.427171,4.523216 9.410656,9.379192 0.397997,1.96512 0.369114,8.38666 -0.03382,7.52 z"
           id="path182" /></g><path
         style="fill:#807d7d;stroke-width:0.24"
         d="m -101.24665,130.58785 c 0.17325,0.0693 0.38025,0.0608 0.46,-0.0189 0.0797,-0.0797 -0.062,-0.13647 -0.315,-0.12605 -0.27959,0.0115 -0.33645,0.0684 -0.145,0.145 z m 12.960002,0 c 0.17325,0.0693 0.38025,0.0608 0.459998,-0.0189 0.07976,-0.0797 -0.06203,-0.13647 -0.315,-0.12605 -0.279585,0.0115 -0.33645,0.0684 -0.144998,0.145 z m 28.800001,0 c 0.17325,0.0693 0.38025,0.0608 0.459998,-0.0189 0.07975,-0.0797 -0.06202,-0.13647 -0.315,-0.12605 -0.279585,0.0115 -0.33645,0.0684 -0.144998,0.145 z m 63.3600019,0 c 0.17325,0.0693 0.38025,0.0608 0.4599975,-0.0189 0.079755,-0.0797 -0.062025,-0.13647 -0.315,-0.12605 -0.279585,0.0115 -0.33645,0.0684 -0.1449975,0.145 z m 29.5200011,0 c 0.17325,0.0693 0.38025,0.0608 0.459997,-0.0189 0.07975,-0.0797 -0.06202,-0.13647 -0.315,-0.12605 -0.279585,0.0115 -0.33645,0.0684 -0.144997,0.145 z m 37.920001,0 c 0.173257,0.0693 0.380257,0.0608 0.460005,-0.0189 0.07975,-0.0797 -0.06203,-0.13647 -0.315,-0.12605 -0.2796,0.0115 -0.33645,0.0684 -0.145005,0.145 z m 22.32,0 c 0.173258,0.0693 0.380258,0.0608 0.460005,-0.0189 0.07976,-0.0797 -0.06203,-0.13647 -0.315,-0.12605 -0.2796,0.0115 -0.33645,0.0684 -0.145005,0.145 z m -129.694158,4.75606 c -2.1e-4,2.64 0.03487,3.75274 0.07793,2.47276 0.04305,-1.27998 0.0432,-3.43998 4.8e-4,-4.8 -0.0429,-1.36002 -0.0781,-0.31276 -0.07831,2.32724 z M 96.577295,133.6839 c 0.01155,0.2796 0.0684,0.33646 0.145005,0.14501 0.0693,-0.17325 0.06082,-0.38025 -0.01897,-0.46001 -0.07975,-0.0797 -0.136485,0.062 -0.126068,0.315 z m -130.818941,1.15062 c 0,0.0499 0.189,0.23884 0.42,0.42 0.380655,0.29853 0.389145,0.29004 0.09061,-0.0906 -0.31353,-0.39978 -0.510615,-0.52692 -0.510615,-0.32939 z m 2.16,0.96 c 0,0.0499 0.189,0.23884 0.42,0.42 0.380655,0.29853 0.389145,0.29004 0.09061,-0.0906 -0.31353,-0.39978 -0.510615,-0.52692 -0.510615,-0.32939 z m 69.840002,16.32 c 0,0.0498 0.189,0.23884 0.42,0.42 0.380655,0.29853 0.389145,0.29004 0.09061,-0.0906 -0.31353,-0.39978 -0.510615,-0.52692 -0.510615,-0.32939 z m -54.859157,9.62939 c -2.1e-4,2.64 0.03487,3.75274 0.07793,2.47276 0.04305,-1.27997 0.0432,-3.43998 4.8e-4,-4.8 -0.0429,-1.36002 -0.0781,-0.31276 -0.07831,2.32724 z m -27.880845,2.69892 c 1.287,0.0432 3.393,0.0432 4.68,0 1.287,-0.0432 0.234,-0.0785 -2.34,-0.0785 -2.574,0 -3.627,0.0353 -2.34,0.0785 z m 163.710766,5.58108 c 0,1.518 0.0389,2.139 0.0866,1.38 0.0476,-0.759 0.0476,-2.001 0,-2.76 -0.0476,-0.759 -0.0866,-0.138 -0.0866,1.38 z m -212.686135,-1.74048 c 2.202555,0.0396 5.874555,0.0396 8.16,1.6e-4 2.285453,-0.0395 0.483368,-0.0719 -4.004633,-0.072 -4.488,-9e-5 -6.357915,0.0322 -4.155367,0.0718 z m 50.790961,1.9e-4 c 2.417573,0.0392 6.305573,0.0391 8.64,-1.4e-4 2.33442,-0.0393 0.356408,-0.0713 -4.395592,-0.0712 -4.752,8e-5 -6.661988,0.0322 -4.244408,0.0714 z m 31.304408,-1.7e-4 c 2.0790005,0.04 5.4810006,0.04 7.5600007,0 2.079,-0.0399 0.378,-0.0726 -3.7800001,-0.0726 -4.1580006,0 -5.8590006,0.0327 -3.7800006,0.0726 z m 34.334979,8e-5 c 2.087235,0.04 5.435235,0.0399 7.44,-1.9e-4 2.004765,-0.0401 0.297023,-0.0728 -3.794978,-0.0727 -4.092,1.1e-4 -5.732257,0.0329 -3.645022,0.0729 z"
         id="path180" /><path
         style="fill:#706e6d;stroke-width:0.24"
         d="m 82.011597,133.66391 c 0,1.716 0.0387,2.38651 0.08496,1.49002 0.04627,-0.89649 0.04597,-2.30049 0,-3.12 -0.04673,-0.81951 -0.0846,-0.086 -0.0842,1.62998 z m -46.893241,-2.66939 c 0,0.0498 0.189,0.23884 0.42,0.42 0.380655,0.29853 0.389145,0.29004 0.09061,-0.0906 -0.31353,-0.39978 -0.510615,-0.52692 -0.510615,-0.32939 z m -136.380006,0.30834 c 0.165,0.0666 0.435,0.0666 0.6,0 0.165,-0.0666 0.03,-0.12106 -0.3,-0.12106 -0.33,0 -0.465,0.0545 -0.3,0.12106 z m 13.455002,0.005 c 0.17325,0.0693 0.38025,0.0608 0.459998,-0.0189 0.07975,-0.0798 -0.06203,-0.13648 -0.315,-0.12606 -0.279585,0.0115 -0.33645,0.0684 -0.144998,0.145 z m 159.600005,0 c 0.173257,0.0693 0.380257,0.0608 0.460005,-0.0189 0.07976,-0.0798 -0.06202,-0.13648 -0.315,-0.12606 -0.2796,0.0115 -0.33645,0.0684 -0.145005,0.145 z m -104.145618,0.73602 c -0.29853,0.38066 -0.29004,0.38915 0.09061,0.0906 0.231,-0.18117 0.42,-0.37017 0.42,-0.42 0,-0.19754 -0.197085,-0.0704 -0.510615,0.32938 z m -57.484194,1.86 c -7.2e-4,1.188 0.03983,1.70426 0.09018,1.14724 0.05033,-0.55702 0.05092,-1.52902 0.0015,-2.16 -0.04957,-0.63098 -0.09078,-0.17524 -0.09152,1.01276 z m 56.044194,-1.38 c -0.29853,0.38066 -0.29004,0.38915 0.09062,0.0906 0.39978,-0.31353 0.526912,-0.51062 0.329385,-0.51062 -0.04988,0 -0.238838,0.189 -0.42,0.42 z m 89.154475,2.22 c 0,1.122 0.04133,1.581 0.09188,1.02 0.05055,-0.561 0.05055,-1.479 0,-2.04 -0.05055,-0.561 -0.09188,-0.102 -0.09188,1.02 z m 4.08,0 c 0,1.122 0.04133,1.581 0.09188,1.02 0.05055,-0.561 0.05055,-1.479 0,-2.04 -0.05055,-0.561 -0.09188,-0.102 -0.09188,1.02 z m -23.104913,-1.06 c 0.01155,0.27959 0.0684,0.33646 0.145005,0.145 0.0693,-0.17325 0.06083,-0.38025 -0.0189,-0.46 -0.07975,-0.0798 -0.136478,0.062 -0.126053,0.315 z m -71.298947,0.43039 c 0,0.0499 0.189,0.23883 0.42,0.42 0.380655,0.29853 0.389145,0.29004 0.09061,-0.0906 -0.31353,-0.39978 -0.510615,-0.52692 -0.510615,-0.32939 z m -56.141057,2.20938 c 0.01155,0.2796 0.0684,0.33646 0.145005,0.14501 0.0693,-0.17325 0.06082,-0.38025 -0.0189,-0.46001 -0.07976,-0.0797 -0.136477,0.062 -0.126052,0.315 z m 163.439997,0 c 0.01155,0.2796 0.0684,0.33646 0.145005,0.14501 0.0693,-0.17325 0.06083,-0.38025 -0.01897,-0.46001 -0.07975,-0.0797 -0.136485,0.062 -0.126067,0.315 z m -162.203262,1.30001 c 0,0.462 0.04942,0.651 0.109763,0.42 0.06037,-0.231 0.06037,-0.609 0,-0.84 -0.06038,-0.231 -0.109763,-0.042 -0.109763,0.42 z m 12.424321,14.49061 c 0,0.0498 0.189,0.23884 0.42,0.42 0.380655,0.29853 0.389145,0.29004 0.09061,-0.0906 -0.31353,-0.39978 -0.510615,-0.52692 -0.510615,-0.32939 z m 57.089386,0.32939 c -0.29853,0.38065 -0.29004,0.38914 0.09061,0.0906 0.39978,-0.31353 0.526913,-0.51061 0.329385,-0.51061 -0.04988,0 -0.238837,0.189 -0.42,0.42 z m -59.868159,9.42 c 0,2.706 0.03503,3.813 0.07778,2.46 0.04275,-1.353 0.04275,-3.567 0,-4.92 -0.04275,-1.353 -0.07778,-0.246 -0.07778,2.46 z m 120.157721,4.94 c 0.01155,0.27958 0.0684,0.33645 0.145005,0.145 0.0693,-0.17325 0.06082,-0.38025 -0.01898,-0.46 -0.07975,-0.0797 -0.136478,0.062 -0.126053,0.315 z m 77.501059,5.95061 c 0,0.0498 0.189,0.23884 0.42,0.42 0.38066,0.29853 0.38914,0.29004 0.0906,-0.0906 -0.31354,-0.39978 -0.51062,-0.52692 -0.51062,-0.32939 z m 6.44938,0.32939 c -0.29852,0.38065 -0.29004,0.38914 0.0906,0.0906 0.39976,-0.31353 0.52692,-0.51061 0.32938,-0.51061 -0.0498,0 -0.23883,0.189 -0.42,0.42 z"
         id="path178" /><path
         style="fill:#605c5b;stroke-width:0.24"
         d="m 2.1783549,127.70934 c -0.231,0.0604 -0.4200001,0.24374 -0.4200001,0.40748 0,0.21388 0.3885676,0.26991 1.3800001,0.19896 1.834035,-0.13126 2.7000001,0.47349 2.7000001,1.88554 0,0.89628 -0.2786401,1.22256 -0.6000001,0.70259 -0.081577,-0.132 -0.62193,-0.24 -1.20078,-0.24 -1.624455,0 -2.3352451,0.73901 -2.4673501,2.56531 -0.1233225,1.70491 0.3168675,2.76072 1.3802776,3.31062 0.8947275,0.46269 1.2904725,0.45777 2.229195,-0.0277 0.5237851,-0.27086 0.7854601,-0.30788 0.8480851,-0.12 0.0498,0.14944 0.24357,0.27172 0.430575,0.27172 0.4971075,0 0.4875375,-6.38231 -0.011325,-7.57635 -0.52062,-1.24602 -2.4234976,-1.86039 -4.2686401,-1.37821 z m 3.3586575,3.96325 c 0.1915726,0.15899 0.3013426,0.8901 0.3013426,2.0071 0,1.54357 -0.0648,1.80238 -0.5334001,2.13061 -1.4949525,1.0471 -3.07515,-0.10962 -3.06306,-2.2422 0.010575,-1.86846 1.9697625,-2.99546 3.2951175,-1.89551 z m -123.5386624,1.99132 c 0,2.50666 0.0592,3 0.36,3 0.198,0 0.36,-0.162 0.36,-0.36 0,-0.45551 0.33589,-0.46283 0.7072,-0.0155 0.42791,0.51559 1.63084,0.69932 2.42499,0.37038 0.89062,-0.36891 1.18468,-1.36398 1.18647,-4.01495 0.001,-1.82045 -0.0373,-1.98 -0.47866,-1.98 -0.44777,0 -0.48,0.15999 -0.48,2.38285 0,2.53875 -0.23517,3.13715 -1.23292,3.13715 -0.5499,0 -1.44482,-0.42867 -1.7034,-0.81593 -0.097,-0.14524 -0.17798,-1.26307 -0.18,-2.48407 -0.003,-2.05878 -0.0385,-2.22 -0.48368,-2.22 -0.4544,0 -0.48,0.16 -0.48,3 z m 15.14642,-2.66508 c -0.81825,0.45352 -1.20813,1.29126 -1.21791,2.617 -0.0104,1.41129 0.49137,2.44192 1.42364,2.92401 1.39801,0.72295 2.657662,0.25361 3.273202,-1.21959 0.699473,-1.67407 0.594383,-1.77634 -1.825352,-1.77634 -1.188,0 -2.16,-0.10097 -2.16,-0.22438 0,-1.33064 1.47659,-2.29057 3.11933,-2.02789 0.957702,0.15314 1.36208,-0.18234 0.581045,-0.48206 -0.664275,-0.2549 -2.599495,-0.14023 -3.193955,0.18925 z m 2.85358,3.69168 c 0,1.10695 -1.13524,1.77947 -2.26924,1.34431 -0.33727,-0.12942 -1.09076,-1.26163 -1.09076,-1.63899 0,-0.0725 0.756,-0.13192 1.68,-0.13192 1.4499,0 1.68,0.0584 1.68,0.4266 z m 10.697147,-3.64946 c -0.289522,0.28953 -0.377145,0.90285 -0.377145,2.64 0,2.25372 -0.0023,2.26286 -0.6,2.26286 -0.756817,0 -0.808462,0.65701 -0.06,0.7633 0.41388,0.0588 0.557565,0.25887 0.61521,0.8567 0.106583,1.10542 0.76479,1.05379 0.76479,-0.06 0,-0.82001 0.02287,-0.84 0.96,-0.84 0.69333,0 0.96,-0.10001 0.96,-0.36 0,-0.26 -0.26667,-0.36 -0.96,-0.36 h -0.96 l 0.0037,-1.98 c 0.0023,-1.089 0.09862,-2.12993 0.214658,-2.31317 0.11604,-0.18324 0.546142,-0.34524 0.955777,-0.36 0.421193,-0.0152 0.745028,-0.15718 0.745343,-0.32683 7.2e-4,-0.44236 -1.804365,-0.38081 -2.262315,0.0771 z m 11.218021,2.62286 c -0.87087,2.6308 -0.94167,3 -0.575288,3 0.323873,0 0.572055,-0.54258 1.104015,-2.41368 0.377415,-1.32752 0.747983,-2.45186 0.823478,-2.49852 0.0755,-0.0466 0.444,1.0395 0.818895,2.41368 0.598807,2.19497 0.74493,2.49852 1.202745,2.49852 0.45627,0 0.59196,-0.27631 1.090185,-2.22 0.682612,-2.66303 0.867682,-3.08978 1.05774,-2.4391 1.115272,3.81823 1.42887,4.6591 1.737585,4.6591 0.469927,0 0.468397,-0.008 -0.574628,-3.12797 -0.71589,-2.14123 -1.022962,-2.76741 -1.383532,-2.82132 -0.400928,-0.0599 -0.556335,0.28799 -1.152345,2.58 -0.378908,1.4571 -0.720653,2.64929 -0.759435,2.64929 -0.03878,0 -0.238043,-0.59462 -0.442793,-1.32139 -0.204742,-0.72676 -0.53943,-1.91476 -0.74373,-2.64 -0.61197,-2.17235 -1.03377,-1.85041 -2.202892,1.68139 z m 16.820835,-2.184 c -0.716722,0.71672 -0.816,0.96636 -0.816,2.05192 0,1.4952 0.487755,2.51965 1.432148,3.00801 0.876832,0.45344 1.4763,0.4589 2.519617,0.023 1.14456,-0.47823 1.64967,-1.55369 1.51161,-3.21848 -0.09199,-1.10922 -0.231532,-1.43005 -0.870247,-2.00074 -0.600758,-0.53678 -0.992025,-0.67968 -1.860915,-0.67968 -0.931223,0 -1.225545,0.12533 -1.916213,0.816 z m 2.659988,-0.0975 c 0.801607,0.30477 1.41885,1.72411 1.237035,2.84452 -0.444098,2.73663 -3.636173,2.53416 -3.910755,-0.24805 -0.119288,-1.20868 0.275947,-2.09836 1.122465,-2.52668 0.724132,-0.36639 0.766162,-0.36828 1.551255,-0.0698 z m 10.924013,2.28153 c 0,2.50666 0.05918,3 0.36,3 0.200002,0 0.36,-0.21334 0.36,-0.48 0,-0.264 0.108,-0.48 0.24,-0.48 0.132,0 0.24,0.10522 0.24,0.23383 0,0.28177 1.266622,0.96617 1.788082,0.96617 0.639863,0 0.405428,-0.70308 -0.288082,-0.86399 -1.60332,-0.37197 -1.74,-0.6156 -1.74,-3.10155 0,-2.11446 -0.03375,-2.27446 -0.48,-2.27446 -0.454403,0 -0.48,0.16 -0.48,3 z m 11.76,1.68 c 0,4 0.05228,4.68 0.36,4.68 0.307695,0 0.36,-0.68 0.36,-4.68 0,-4.00001 -0.05228,-4.68 -0.36,-4.68 -0.307695,0 -0.36,0.67999 -0.36,4.68 z m 2.4501,-3.03749 -1.459778,1.64252 1.395323,1.38076 c 0.827857,0.81922 1.558065,1.3469 1.795485,1.29749 0.299602,-0.0623 0.06863,-0.4101 -0.919185,-1.38392 l -1.319325,-1.30063 1.453402,-1.63937 c 1.14585,-1.29246 1.353998,-1.63936 0.98364,-1.63936 -0.278407,0 -1.064445,0.6691 -1.929562,1.64251 z m 10.9899,1.35749 c 0,2.83999 0.02557,3 0.48,3 0.454403,0 0.48,-0.16001 0.48,-3 0,-2.84 -0.02557,-3 -0.48,-3 -0.454402,0 -0.48,0.16 -0.48,3 z m 10.08,0 c 0,2.50666 0.05917,3 0.36,3 0.198,0 0.36,-0.162 0.36,-0.36 0,-0.41512 0.377333,-0.48029 0.609151,-0.1052 0.2757,0.44609 1.398862,0.74211 2.2265696,0.58683 1.11525,-0.20922 1.48428,-1.19226 1.48428,-3.95392 0,-2.00771 -0.0354,-2.16771 -0.48,-2.16771 -0.44655,0 -0.48,0.16 -0.48,2.29578 0,1.26268 -0.1118025,2.50468 -0.248445,2.76 -0.33114,0.61874 -1.4311046,0.60244 -2.2391846,-0.0332 -0.603263,-0.47452 -0.632371,-0.60156 -0.632371,-2.76 0,-2.10258 -0.03397,-2.26258 -0.48,-2.26258 -0.454402,0 -0.48,0.16 -0.48,3 z m 30.879999,-2.84 c -0.392978,0.39298 -0.0985,0.60188 0.650385,0.46139 1.471552,-0.27607 2.720962,0.59284 2.151225,1.49606 -0.129135,0.20472 -0.767318,0.55015 -1.418198,0.76763 -0.87756,0.29322 -1.241025,0.55826 -1.40634,1.02549 -0.298725,0.84432 0.147563,1.78682 0.999983,2.11185 0.851932,0.32484 2.702947,0.0632 2.702947,-0.38204 0,-0.24235 -0.22002,-0.2945 -0.826972,-0.196 -1.13934,0.18489 -1.991378,-0.0721 -2.17686,-0.65646 -0.215918,-0.68031 0.19959,-1.08958 1.417567,-1.39627 1.24176,-0.31268 1.666268,-0.76154 1.666268,-1.76184 0,-1.08145 -0.789533,-1.62981 -2.346593,-1.62981 -0.689377,0 -1.325407,0.072 -1.413412,0.16 z m 13.246875,0.51968 c -0.642187,0.57379 -0.77808,0.88936 -0.872302,2.02552 -0.145725,1.75725 0.502627,2.91485 1.860405,3.32165 1.110787,0.3328 1.9206,0.16037 2.8002,-0.59623 0.56682,-0.48756 0.67197,-0.78601 0.759112,-2.15456 0.09884,-1.55213 0.08177,-1.608 -0.742567,-2.43234 -0.719558,-0.71957 -1.005623,-0.84372 -1.943933,-0.84372 -0.86889,0 -1.260157,0.1429 -1.860915,0.67968 z m 2.99184,0.29071 c 0.770018,0.60571 1.039425,1.87539 0.663878,3.12884 -0.657218,2.19361 -3.309975,1.82473 -3.74259,-0.52043 -0.408188,-2.21278 1.51269,-3.84023 3.078712,-2.60841 z m 10.721288,3.70961 c 0,4 0.05228,4.68 0.36,4.68 0.307695,0 0.36,-0.68 0.36,-4.68 0,-4.00001 -0.05227,-4.68 -0.36,-4.68 -0.307695,0 -0.36,0.67999 -0.36,4.68 z M 56.107451,131.253 c -0.547267,0.54726 -0.589095,0.76026 -0.589095,3 0,1.98303 0.0639,2.41091 0.36,2.41091 0.294218,0 0.36,-0.40824 0.36,-2.23413 0,-2.48492 0.198668,-2.96066 1.32897,-3.18243 0.523028,-0.10262 0.892418,-0.0106 1.307535,0.32547 0.523155,0.42362 0.588255,0.68988 0.679665,2.77979 0.07684,1.75694 0.180563,2.3113 0.432458,2.3113 0.258765,0 0.331372,-0.50364 0.331372,-2.29847 0,-2.2204 -0.02385,-2.32228 -0.701542,-3 -0.946658,-0.94666 -2.621483,-1.00032 -3.509363,-0.11244 z m 14.156768,-0.24869 c -0.39324,0.28734 -0.478822,0.69885 -0.549022,2.64 -0.08122,2.24521 -0.09682,2.2996 -0.66,2.2996 -0.352755,0 -0.57684,0.13985 -0.57684,0.36 0,0.22399 0.226657,0.36 0.6,0.36 0.52572,0 0.6,0.10399 0.6,0.84 0,0.67999 0.09144,0.84 0.48,0.84 0.38856,0 0.48,-0.16001 0.48,-0.84 0,-0.8 0.03997,-0.84 0.84,-0.84 0.586657,0 0.84,-0.10857 0.84,-0.36 0,-0.25143 -0.253343,-0.36 -0.84,-0.36 h -0.84 v -2.16594 c 0,-2.12678 0.01155,-2.17035 0.641377,-2.4098 0.352778,-0.13412 0.784778,-0.18883 0.96,-0.12159 0.175703,0.0674 0.318623,-0.0358 0.318623,-0.2302 0,-0.468 -1.658205,-0.47672 -2.294138,-0.0121 z m 10.934138,2.6596 c 0,2.50666 0.05917,3 0.36,3 0.300795,0 0.36,-0.49334 0.36,-3 0,-2.50667 -0.05917,-3 -0.36,-3 -0.300795,0 -0.36,0.49333 -0.36,3 z m 10.76688,-2.32032 c -0.638715,0.5707 -0.778275,0.89152 -0.870262,2.00074 -0.138053,1.66479 0.367057,2.74026 1.511617,3.21849 1.043325,0.43592 1.64277,0.43046 2.51961,-0.0229 0.9444,-0.48837 1.432155,-1.51282 1.432155,-3.00802 0,-1.08556 -0.09928,-1.3352 -0.816,-2.05192 -0.690675,-0.69067 -0.984982,-0.816 -1.916205,-0.816 -0.868897,0 -1.260172,0.14291 -1.860915,0.67968 z m 3.27312,0.54211 c 0.735023,0.72207 0.676103,2.8508 -0.101835,3.67887 -1.71681,1.82748 -4.097062,-0.55552 -3.052342,-3.05587 0.586035,-1.40261 2.06352,-1.69442 3.154177,-0.623 z m 10.200003,1.77821 c 0,2.50666 0.0592,3 0.36,3 0.198,0 0.36,-0.162 0.36,-0.36 0,-0.46355 0.0482,-0.45697 1.07014,0.14598 0.6405,0.37791 1.0691,0.46631 1.69312,0.34924 1.22722,-0.23022 1.55674,-1.04377 1.55674,-3.8433 0,-2.13192 -0.0335,-2.29192 -0.48,-2.29192 -0.44894,0 -0.48,0.16 -0.48,2.472 0,1.60267 -0.10128,2.57328 -0.288,2.76 -0.44288,0.44286 -1.4981,0.3424 -2.19962,-0.20942 -0.60327,-0.47453 -0.63238,-0.60156 -0.63238,-2.76 0,-2.10258 -0.034,-2.26258 -0.48,-2.26258 -0.4544,0 -0.48,0.16 -0.48,3 z m 14.08,-2.84 c -0.39736,0.39735 -0.086,0.59038 0.74,0.45867 1.08144,-0.17244 2.07038,0.26855 2.17159,0.96834 0.0872,0.60309 -0.25713,0.89763 -1.51159,1.29299 -1.31772,0.4153 -1.56,0.65636 -1.56,1.55218 0,1.25022 1.21579,1.99335 2.78086,1.69974 1.19142,-0.22352 1.09488,-0.84324 -0.10626,-0.68213 -1.08316,0.14528 -1.9546,-0.24208 -1.9546,-0.86885 0,-0.55678 0.40356,-0.89585 1.32134,-1.1102 1.3039,-0.30453 1.79866,-0.76563 1.79866,-1.67628 0,-1.25464 -0.67385,-1.79446 -2.24,-1.79446 -0.70401,0 -1.35201,0.072 -1.44,0.16 z m -142.000006,8 c 0,0.31999 0.159998,0.48 0.48,0.48 0.320003,0 0.48,-0.16001 0.48,-0.48 0,-0.32 -0.159997,-0.48 -0.48,-0.48 -0.320002,0 -0.48,0.16 -0.48,0.48 z m 103.680003,0 c 0,0.31999 0.160005,0.48 0.48,0.48 0.319995,0 0.48,-0.16001 0.48,-0.48 0,-0.32 -0.160005,-0.48 -0.48,-0.48 -0.319995,0 -0.48,0.16 -0.48,0.48 z m -9.733658,18.6 c -1.2e-4,3.96 0.03278,5.61367 0.07305,3.67483 0.04027,-1.93884 0.04042,-5.17884 1.95e-4,-7.2 -0.0402,-2.02116 -0.07312,-0.43483 -0.07327,3.52517 z m -70.54634418,-1.08 c 0.23891998,0.264 0.48839248,0.48 0.55439248,0.48 0.066,0 -0.075473,-0.216 -0.3143925,-0.48 -0.23891998,-0.264 -0.48839248,-0.48 -0.55439248,-0.48 -0.066,0 0.0754725,0.216 0.3143925,0.48 z m -30.32211082,0.96 c 0,0.33 0.05445,0.465 0.121058,0.3 0.0666,-0.165 0.0666,-0.435 0,-0.6 -0.0666,-0.165 -0.121058,-0.03 -0.121058,0.3 z m 69.422957,4.44 c -2.1e-4,2.64 0.03487,3.75274 0.07793,2.47276 0.04305,-1.27997 0.0432,-3.43998 4.8e-4,-4.8 -0.04283,-1.36002 -0.0781,-0.31276 -0.07831,2.32724 z m 79.407799,6.72 c 0.002,0.66 0.0484,0.90151 0.10358,0.5367 0.0551,-0.36482 0.0537,-0.90482 -0.003,-1.2 -0.0569,-0.29519 -0.1021,0.003 -0.1003,0.6633 z m -0.0308,2.52 c 0,0.33 0.0545,0.465 0.12106,0.3 0.0666,-0.165 0.0666,-0.435 0,-0.6 -0.0666,-0.165 -0.12106,-0.03 -0.12106,0.3 z m -12.30852,0.42 c -0.29852,0.38065 -0.29004,0.38914 0.0906,0.0906 0.39977,-0.31353 0.52692,-0.51061 0.32938,-0.51061 -0.0498,0 -0.23882,0.189 -0.42,0.42 z m 10.23063,2.22 c 0.23892,0.264 0.4884,0.48 0.5544,0.48 0.066,0 -0.0755,-0.216 -0.3144,-0.48 -0.23892,-0.264 -0.4884,-0.48 -0.5544,-0.48 -0.066,0 0.0755,0.216 0.3144,0.48 z m 6.9372,0.06 -0.4572,0.54 0.54,-0.4572 c 0.50746,-0.42965 0.64924,-0.6228 0.4572,-0.6228 -0.0455,0 -0.28856,0.243 -0.54,0.54 z"
         id="path176" /><g
         id="g203"
         transform="matrix(0.75000002,0,0,-0.75000002,-179.97865,217.29293)"><path
           style="fill:#4c4948;stroke-width:0.32"
           d="M 102.476,73.885541 V 58.505718 l 15.12,0.09982 c 14.68584,0.09696 15.16272,0.11957 16.60773,0.787555 1.90168,0.879085 3.98545,2.96286 4.86454,4.864534 0.64677,1.399119 0.68773,1.973771 0.68773,9.647733 0,7.914438 -0.023,8.210842 -0.76346,9.849418 -0.99827,2.20903 -3.40956,4.38711 -5.56571,5.027417 -1.34756,0.400185 -4.14512,0.483167 -16.28891,0.483167 H 102.476 Z m 29.80455,8.04864 c 0.7469,-0.604262 0.75655,-0.691293 0.85283,-7.687238 l 0.0974,-7.076058 -0.95276,-0.952761 -0.95279,-0.952762 H 120.26061 109.196 v 8.64 8.64 h 11.16455 c 10.51204,0 11.2087,-0.03572 11.92,-0.611181 z M 150.476,73.905362 v -15.36 h 3.36 3.36 v 15.36 15.36 h -3.36 -3.36 z m 17.6,12 v -3.36 h 11.95684 c 11.61188,0 11.98118,-0.01914 12.8,-0.663226 0.65036,-0.511571 0.84316,-0.945292 0.84316,-1.896774 0,-0.951482 -0.1928,-1.385203 -0.84316,-1.896774 -0.78926,-0.620836 -1.25456,-0.663383 -7.28,-0.665655 -10.45152,-0.0039 -13.16104,-0.557062 -15.83691,-3.232934 -1.95832,-1.958323 -2.43993,-3.216141 -2.43993,-6.372397 0,-2.554915 0.0687,-2.834854 1.08487,-4.417937 1.32897,-2.070474 2.59834,-3.069609 5.04167,-3.968333 1.76726,-0.650049 2.55823,-0.696496 13.95346,-0.819364 l 12.08,-0.130252 v 3.380562 3.380561 l -11.817,0.09126 c -11.42941,0.08827 -11.84661,0.113296 -12.72,0.76305 -1.27884,0.951398 -1.39199,2.587373 -0.25299,3.658205 l 0.84029,0.790006 8.69485,0.17313 c 9.74862,0.194112 10.90148,0.424326 13.572,2.710188 4.68441,4.009684 3.71991,11.562064 -1.83715,14.385453 -2.56371,1.302553 -4.23729,1.451231 -16.33575,1.451231 H 168.076 Z m 48.40787,2.836563 c -1.93343,-0.693008 -4.3366,-2.978291 -5.24441,-4.987145 -0.74048,-1.638576 -0.76346,-1.93498 -0.76346,-9.849418 v -8.16 l 0.90179,-1.836431 c 0.96769,-1.970639 2.78866,-3.69675 4.88288,-4.628515 1.08818,-0.484155 2.60646,-0.573873 11.4026,-0.673798 13.16666,-0.149575 15.62509,0.246518 17.92074,2.887323 l 0.868,0.998511 -2.73909,1.995371 c -2.69248,1.961417 -2.74945,1.985011 -3.348,1.386454 -0.57364,-0.573632 -1.21297,-0.608915 -11.03353,-0.608915 h -10.42462 l -0.95276,0.952762 -0.95276,0.952761 0.0974,7.076058 c 0.0963,6.995945 0.10593,7.082976 0.85283,7.687238 0.70919,0.573754 1.3972,0.611181 11.23535,0.611181 h 10.47989 l 1.18906,-0.806922 1.18907,-0.806918 2.4134,2.159984 2.4134,2.159984 -1.21792,1.05281 c -0.66985,0.579043 -2.01887,1.446166 -2.99781,1.926934 l -1.77992,0.874128 -11.52,0.06061 c -9.59197,0.05046 -11.7463,-0.02051 -12.87213,-0.424045 z m 45.89699,0.06189 c -2.8874,-1.029959 -5.21128,-3.454893 -5.98707,-6.247412 -0.17282,-0.622076 -0.31503,-4.525395 -0.316,-8.674041 -10e-4,-6.062762 0.0982,-7.836403 0.50766,-9.038145 0.69593,-2.042448 2.92316,-4.436354 5.00113,-5.375402 1.67997,-0.759182 1.75387,-0.763453 13.20942,-0.763453 h 11.52 l 1.57533,0.775332 c 1.90022,0.935228 3.66224,2.634818 4.51528,4.35528 0.57045,1.15052 0.63828,2.075289 0.72433,9.875612 l 0.0949,8.606224 -0.8329,1.702397 c -1.06271,2.172089 -3.29109,4.145769 -5.38179,4.766637 -2.23533,0.663824 -22.77725,0.67798 -24.63032,0.01699 z M 285.836,81.905362 c 0.60278,-0.602781 0.64,-1.066666 0.64,-7.976774 v -7.336775 l -0.85887,-0.67559 c -0.8397,-0.660505 -1.0904,-0.673527 -11.22861,-0.583226 l -10.36973,0.09237 -0.61139,0.75545 c -0.55998,0.691913 -0.6114,1.34095 -0.6114,7.716848 0,6.558112 0.0384,7.010236 0.66323,7.804547 l 0.66322,0.843155 h 10.53678 c 10.1101,0 10.56269,-0.02592 11.17677,-0.64 z m 17.6,-8 v -15.36 h 3.60287 3.60287 l 5.27713,11.066362 c 2.90242,6.086499 5.54841,11.774499 5.87998,12.64 0.33158,0.8655 0.69286,1.573638 0.80287,1.573638 0.11,0 0.52938,-0.9 0.93196,-2 0.40257,-1.1 2.99781,-6.752 5.76718,-12.56 l 5.03524,-10.56 3.58995,-0.09048 3.58995,-0.09048 v 15.37048 15.37048 h -3.04 -3.04 v -9.44 c 0,-5.192 -0.11021,-9.44 -0.2449,-9.44 -0.13468,0 -0.51078,0.748698 -0.8358,1.663773 -0.325,0.915075 -2.29197,5.163075 -4.37101,9.44 l -3.78011,7.776227 h -3.65027 -3.65026 l -3.85816,-7.92 c -2.12199,-4.356 -4.12621,-8.712 -4.45382,-9.68 l -0.59567,-1.76 -0.0847,9.68 -0.0847,9.68 h -3.1953 -3.19531 z m 48.32,-0.01606 V 58.513224 l 13.52,0.09607 c 15.17987,0.107869 14.64768,0.03012 17.36765,2.537288 2.53379,2.335571 2.87235,3.292512 2.87235,8.118786 0,4.00935 -0.0342,4.221798 -0.94528,5.86647 -1.03251,1.864019 -2.11328,2.905942 -4.13744,3.988826 -1.2672,0.67791 -1.70966,0.708371 -11.63728,0.801123 l -10.32,0.09642 v 4.623581 4.623581 h -3.36 -3.36 z m 26.45936,-1.319706 c 0.65251,-0.612998 0.74064,-0.995462 0.74064,-3.214547 0,-2.247577 -0.0846,-2.603331 -0.78544,-3.304217 l -0.78547,-0.78547 h -9.45453 -9.45456 v 4 4 h 9.49936 c 9.31283,0 9.51395,-0.01366 10.24,-0.695779 z m 19.90816,-4.035212 c -3.91978,-2.047719 -4.61594,-7.326296 -1.36787,-10.372033 3.3263,-3.119115 8.44611,-2.063483 10.39366,2.143025 0.85667,1.850282 0.76736,3.619343 -0.28429,5.632467 -0.72131,1.380701 -1.21584,1.875254 -2.59654,2.596541 -2.23533,1.167737 -3.90963,1.167737 -6.14496,0 z m 6.50902,-1.103664 c 0.61239,-0.467072 1.36557,-1.38064 1.6738,-2.030157 0.76867,-1.619865 0.55875,-4.449972 -0.43344,-5.843359 -2.15175,-3.021836 -7.20775,-3.010544 -9.36996,0.02093 -0.6136,0.860288 -0.74694,1.451581 -0.74694,3.312154 0,1.963363 0.11418,2.414585 0.85747,3.389126 1.26259,1.655321 2.60541,2.226691 4.94413,2.103693 1.5288,-0.08041 2.20723,-0.290532 3.07494,-0.952384 z M 398.476,63.025362 v -3.52 h 1.8488 c 2.096,0 3.27389,0.612375 3.2663,1.698145 -0.006,0.89223 -0.28819,1.307552 -1.22153,1.79935 -0.62858,0.331208 -0.67431,0.452451 -0.2896,0.767906 0.50765,0.416307 1.83603,2.285831 1.83603,2.583997 0,0.104832 -0.2023,0.190602 -0.4496,0.190602 -0.24726,0 -0.82851,-0.64657 -1.29162,-1.436821 -0.81625,-1.392803 -1.97072,-2.077874 -2.7206,-1.614419 -0.18599,0.114956 -0.33818,0.848512 -0.33818,1.630125 0,0.781614 -0.144,1.421115 -0.32,1.421115 -0.19395,0 -0.32,-1.386667 -0.32,-3.52 z m 3.776,-0.704 c 1.04618,-1.046177 -0.0902,-2.297584 -1.9208,-2.115172 -0.7769,0.07742 -1.02115,0.271935 -1.1135,0.886748 -0.0651,0.433167 -0.0471,0.973167 0.04,1.2 0.20093,0.523676 2.47748,0.545286 2.99434,0.02842 z"
           id="path174" /></g></g><g
       id="g1294"
       transform="translate(41.734516,-111.28536)"><path
         id="path2987"
         style="fill:#00ff00;stroke:#004101;stroke-width:1.62334;stroke-opacity:1"
         d="m 33.048699,173.48504 -4.857427,0.0108 -24.8311722,-13.71147 -25.0478478,13.82255 -4.806697,0.0107 -0.02477,-11.12229 29.8997345,-16.50294 29.6442205,16.37033 0.02477,11.12229 z"
         inkscape:export-ydpi="7.4642339"
         inkscape:export-filename="C:\Users\John\Desktop\arrow25.png"
         inkscape:connector-curvature="0"
         inkscape:export-xdpi="7.4642339" /><path
         id="path3776"
         style="fill:url(#linearGradient3803);stroke-width:0.202917"
         d="m 32.674016,172.89538 -4.316247,0.01 -19.5152843,-10.77551 c 0.3286012,-3.90142 1.5058083,-7.48271 3.2899733,-10.44888 l 20.519952,11.3313 0.02201,9.88368 z"
         inkscape:export-ydpi="7.4642339"
         inkscape:export-filename="C:\Users\John\Desktop\arrow25.png"
         inkscape:connector-curvature="0"
         inkscape:export-xdpi="7.4642339" /></g></g></svg>
