<?xml version="1.0" encoding="UTF-8" standalone="no"?>
<!-- Created with Inkscape (http://www.inkscape.org/) -->

<svg
   xmlns:dc="http://purl.org/dc/elements/1.1/"
   xmlns:cc="http://creativecommons.org/ns#"
   xmlns:rdf="http://www.w3.org/1999/02/22-rdf-syntax-ns#"
   xmlns:svg="http://www.w3.org/2000/svg"
   xmlns="http://www.w3.org/2000/svg"
   xmlns:sodipodi="http://sodipodi.sourceforge.net/DTD/sodipodi-0.dtd"
   xmlns:inkscape="http://www.inkscape.org/namespaces/inkscape"
   version="1.1"
   id="svg2"
   xml:space="preserve"
   width="477.33334"
   height="682.66669"
   viewBox="0 0 477.33334 682.66669"
   sodipodi:docname="keys.svg"
   inkscape:version="0.92.4 (5da689c313, 2019-01-14)"><metadata
     id="metadata8"><rdf:RDF><cc:Work
         rdf:about=""><dc:format>image/svg+xml</dc:format><dc:type
           rdf:resource="http://purl.org/dc/dcmitype/StillImage" /><dc:title></dc:title></cc:Work></rdf:RDF></metadata><defs
     id="defs6" /><sodipodi:namedview
     pagecolor="#ffffff"
     bordercolor="#666666"
     borderopacity="1"
     objecttolerance="10"
     gridtolerance="10"
     guidetolerance="10"
     inkscape:pageopacity="0"
     inkscape:pageshadow="2"
     inkscape:window-width="768"
     inkscape:window-height="480"
     id="namedview4"
     showgrid="false"
     inkscape:zoom="0.34570311"
     inkscape:cx="238.66667"
     inkscape:cy="341.33334"
     inkscape:window-x="0"
     inkscape:window-y="36"
     inkscape:window-maximized="0"
     inkscape:current-layer="g10" /><g
     id="g10"
     inkscape:groupmode="layer"
     inkscape:label="ink_ext_XXXXXX"
     transform="matrix(1.3333333,0,0,-1.3333333,0,682.66667)"><g
       id="g12"
       transform="scale(0.1)"><path
         d="m 2336.29,344.262 -124.65,99.679 V 2205.5 c 56.41,-14.88 65.62,-24.6 125.62,-30.27 V 1041.68 Z m 961.6,3714.598 c -1.76,1.88 -3.36,3.8 -5.12,5.67 -27.19,28.64 -56.17,55.59 -86.48,81.01 -4.18,3.52 -8.12,7.24 -12.35,10.71 -27.69,22.5 -56.83,43.25 -86.76,62.86 -6.13,4.06 -11.52,8.94 -17.77,12.88 0,-0.31 -0.07,-0.62 -0.07,-0.94 -0.55,0.32 -1.02,0.71 -1.53,1.02 -11.79,-259.92 -127.15,-502.93 -321.44,-677.23 -41.02,-72.3 -115.35,-123.04 -201.99,-132.26 -3.09,-0.51 -5.67,-0.51 -8.21,-1.06 -7.19,-0.5 -14.88,-1.02 -22.03,-1.02 -148.16,0 -269.18,120.99 -269.18,269.15 0,10.78 0.54,21.52 2.07,32.3 3.59,29.22 11.8,56.91 24.11,82.55 38.43,81.52 116.36,139.96 209.13,151.24 76.41,90.24 117.43,203.01 117.43,322.46 0,37.43 -4.11,73.83 -11.8,109.18 -23.6,2.08 -47.7,3.09 -71.76,3.09 -577.77,0 -1046.36,-468.05 -1046.36,-1045.82 0,-407.58 232.72,-760.31 572.65,-933.05 V 338.859 L 2534.14,0 l 13.75,13.1992 47.27,38.25 0.07,1.25 1.53,-1.25 v 8.6328 l 290.58,278.777 V 649.02 l -180.43,262.5 180.43,262.5 -180.43,262.47 300.91,243.51 v 731.6 c 339.4,172.74 572.14,525.47 572.14,933.05 0,276.17 -107.15,527.3 -282.07,714.21"
         style="fill:#0e0f0e;fill-opacity:1;fill-rule:nonzero;stroke:none"
         id="path14"
         inkscape:connector-curvature="0" /><path
         d="m 1333.98,3344.65 c 0,328.28 132.54,625.74 346.92,842.78 31.84,31.71 65.66,61.87 101.4,90.19 -0.89,-0.16 -1.8,-0.44 -2.69,-0.59 0.82,0.7 1.56,1.52 2.42,2.18 -269.65,-45.62 -520.35,-200.42 -679.81,-449.09 C 890,3499.96 895.121,3092.93 1080.19,2775.58 L 818.75,2369.02 0,1094.53 207.656,573.172 l 462.926,90.226 161.992,251.723 -9.726,307.059 282.972,118.44 -9.22,307.08 370.66,40.5 119.96,187.15 261.49,406.52 c 17.66,-1.83 34.96,-3.08 52.58,-3.7 1.17,-0.16 2.54,-0.24 3.75,-0.39 v 0.11 c 0.5,-0.04 1.06,-0.11 1.56,-0.11 v 43.59 c -355.78,217.89 -572.62,601.33 -572.62,1023.28"
         style="fill:#0e0f0e;fill-opacity:1;fill-rule:nonzero;stroke:none"
         id="path16"
         inkscape:connector-curvature="0" /><path
         d="m 1275.08,4206.68 c 0.27,0.23 0.58,0.39 0.9,0.59 0.04,-0.59 0,-1.25 0.08,-1.88 63.55,47.19 131.72,87.15 204.02,119.45 23.59,329.66 299.42,590.08 634.18,590.08 269.14,0 499.84,-167.62 592.65,-403.98 28.67,-71.76 44.07,-150.71 44.07,-232.74 0,-178.39 -73.83,-339.88 -192.27,-455.23 -46.64,-45.67 -99.96,-84.11 -158.9,-113.32 -1.02,-6.64 -1.53,-13.32 -1.53,-20 0,-74.84 60.98,-135.86 135.86,-135.86 3.04,0 5.63,0 8.71,0.55 41.53,24.06 80.47,52.26 116.88,83.55 180.97,153.79 296.32,383.98 296.32,640.31 0,59.46 -6.17,117.94 -17.96,174.3 -80.47,380.43 -418.83,667.5 -823.83,667.5 -463.99,0 -841.29,-377.85 -841.29,-841.8 0,-15.42 1.13,-30.5 1.91,-45.7 0.12,-8.52 0.39,-17.54 0.2,-25.82"
         style="fill:#0e0f0e;fill-opacity:1;fill-rule:nonzero;stroke:none"
         id="path18"
         inkscape:connector-curvature="0" /></g></g></svg>